G04 #@! TF.GenerationSoftware,KiCad,Pcbnew,(5.1.6)-1*
G04 #@! TF.CreationDate,2020-11-21T21:50:24+04:00*
G04 #@! TF.ProjectId,CH330N-USB-TO-UART-BOARD,43483333-304e-42d5-9553-422d544f2d55,rev?*
G04 #@! TF.SameCoordinates,Original*
G04 #@! TF.FileFunction,Paste,Top*
G04 #@! TF.FilePolarity,Positive*
%FSLAX46Y46*%
G04 Gerber Fmt 4.6, Leading zero omitted, Abs format (unit mm)*
G04 Created by KiCad (PCBNEW (5.1.6)-1) date 2020-11-21 21:50:24*
%MOMM*%
%LPD*%
G01*
G04 APERTURE LIST*
%ADD10R,1.450000X0.600000*%
%ADD11R,1.450000X0.300000*%
G04 APERTURE END LIST*
G04 #@! TO.C,D1*
G36*
G01*
X102493750Y-102600000D02*
X103006250Y-102600000D01*
G75*
G02*
X103225000Y-102818750I0J-218750D01*
G01*
X103225000Y-103256250D01*
G75*
G02*
X103006250Y-103475000I-218750J0D01*
G01*
X102493750Y-103475000D01*
G75*
G02*
X102275000Y-103256250I0J218750D01*
G01*
X102275000Y-102818750D01*
G75*
G02*
X102493750Y-102600000I218750J0D01*
G01*
G37*
G36*
G01*
X102493750Y-101025000D02*
X103006250Y-101025000D01*
G75*
G02*
X103225000Y-101243750I0J-218750D01*
G01*
X103225000Y-101681250D01*
G75*
G02*
X103006250Y-101900000I-218750J0D01*
G01*
X102493750Y-101900000D01*
G75*
G02*
X102275000Y-101681250I0J218750D01*
G01*
X102275000Y-101243750D01*
G75*
G02*
X102493750Y-101025000I218750J0D01*
G01*
G37*
G04 #@! TD*
G04 #@! TO.C,D2*
G36*
G01*
X103006250Y-86900000D02*
X102493750Y-86900000D01*
G75*
G02*
X102275000Y-86681250I0J218750D01*
G01*
X102275000Y-86243750D01*
G75*
G02*
X102493750Y-86025000I218750J0D01*
G01*
X103006250Y-86025000D01*
G75*
G02*
X103225000Y-86243750I0J-218750D01*
G01*
X103225000Y-86681250D01*
G75*
G02*
X103006250Y-86900000I-218750J0D01*
G01*
G37*
G36*
G01*
X103006250Y-88475000D02*
X102493750Y-88475000D01*
G75*
G02*
X102275000Y-88256250I0J218750D01*
G01*
X102275000Y-87818750D01*
G75*
G02*
X102493750Y-87600000I218750J0D01*
G01*
X103006250Y-87600000D01*
G75*
G02*
X103225000Y-87818750I0J-218750D01*
G01*
X103225000Y-88256250D01*
G75*
G02*
X103006250Y-88475000I-218750J0D01*
G01*
G37*
G04 #@! TD*
G04 #@! TO.C,R1*
G36*
G01*
X105743750Y-102600000D02*
X106256250Y-102600000D01*
G75*
G02*
X106475000Y-102818750I0J-218750D01*
G01*
X106475000Y-103256250D01*
G75*
G02*
X106256250Y-103475000I-218750J0D01*
G01*
X105743750Y-103475000D01*
G75*
G02*
X105525000Y-103256250I0J218750D01*
G01*
X105525000Y-102818750D01*
G75*
G02*
X105743750Y-102600000I218750J0D01*
G01*
G37*
G36*
G01*
X105743750Y-101025000D02*
X106256250Y-101025000D01*
G75*
G02*
X106475000Y-101243750I0J-218750D01*
G01*
X106475000Y-101681250D01*
G75*
G02*
X106256250Y-101900000I-218750J0D01*
G01*
X105743750Y-101900000D01*
G75*
G02*
X105525000Y-101681250I0J218750D01*
G01*
X105525000Y-101243750D01*
G75*
G02*
X105743750Y-101025000I218750J0D01*
G01*
G37*
G04 #@! TD*
G04 #@! TO.C,C1*
G36*
G01*
X115600000Y-102506250D02*
X115600000Y-101993750D01*
G75*
G02*
X115818750Y-101775000I218750J0D01*
G01*
X116256250Y-101775000D01*
G75*
G02*
X116475000Y-101993750I0J-218750D01*
G01*
X116475000Y-102506250D01*
G75*
G02*
X116256250Y-102725000I-218750J0D01*
G01*
X115818750Y-102725000D01*
G75*
G02*
X115600000Y-102506250I0J218750D01*
G01*
G37*
G36*
G01*
X114025000Y-102506250D02*
X114025000Y-101993750D01*
G75*
G02*
X114243750Y-101775000I218750J0D01*
G01*
X114681250Y-101775000D01*
G75*
G02*
X114900000Y-101993750I0J-218750D01*
G01*
X114900000Y-102506250D01*
G75*
G02*
X114681250Y-102725000I-218750J0D01*
G01*
X114243750Y-102725000D01*
G75*
G02*
X114025000Y-102506250I0J218750D01*
G01*
G37*
G04 #@! TD*
G04 #@! TO.C,C2*
G36*
G01*
X114900000Y-86993750D02*
X114900000Y-87506250D01*
G75*
G02*
X114681250Y-87725000I-218750J0D01*
G01*
X114243750Y-87725000D01*
G75*
G02*
X114025000Y-87506250I0J218750D01*
G01*
X114025000Y-86993750D01*
G75*
G02*
X114243750Y-86775000I218750J0D01*
G01*
X114681250Y-86775000D01*
G75*
G02*
X114900000Y-86993750I0J-218750D01*
G01*
G37*
G36*
G01*
X116475000Y-86993750D02*
X116475000Y-87506250D01*
G75*
G02*
X116256250Y-87725000I-218750J0D01*
G01*
X115818750Y-87725000D01*
G75*
G02*
X115600000Y-87506250I0J218750D01*
G01*
X115600000Y-86993750D01*
G75*
G02*
X115818750Y-86775000I218750J0D01*
G01*
X116256250Y-86775000D01*
G75*
G02*
X116475000Y-86993750I0J-218750D01*
G01*
G37*
G04 #@! TD*
G04 #@! TO.C,R2*
G36*
G01*
X106256250Y-86862500D02*
X105743750Y-86862500D01*
G75*
G02*
X105525000Y-86643750I0J218750D01*
G01*
X105525000Y-86206250D01*
G75*
G02*
X105743750Y-85987500I218750J0D01*
G01*
X106256250Y-85987500D01*
G75*
G02*
X106475000Y-86206250I0J-218750D01*
G01*
X106475000Y-86643750D01*
G75*
G02*
X106256250Y-86862500I-218750J0D01*
G01*
G37*
G36*
G01*
X106256250Y-88437500D02*
X105743750Y-88437500D01*
G75*
G02*
X105525000Y-88218750I0J218750D01*
G01*
X105525000Y-87781250D01*
G75*
G02*
X105743750Y-87562500I218750J0D01*
G01*
X106256250Y-87562500D01*
G75*
G02*
X106475000Y-87781250I0J-218750D01*
G01*
X106475000Y-88218750D01*
G75*
G02*
X106256250Y-88437500I-218750J0D01*
G01*
G37*
G04 #@! TD*
G04 #@! TO.C,U1*
G36*
G01*
X113495000Y-93200000D02*
X113195000Y-93200000D01*
G75*
G02*
X113045000Y-93050000I0J150000D01*
G01*
X113045000Y-91700000D01*
G75*
G02*
X113195000Y-91550000I150000J0D01*
G01*
X113495000Y-91550000D01*
G75*
G02*
X113645000Y-91700000I0J-150000D01*
G01*
X113645000Y-93050000D01*
G75*
G02*
X113495000Y-93200000I-150000J0D01*
G01*
G37*
G36*
G01*
X114765000Y-93200000D02*
X114465000Y-93200000D01*
G75*
G02*
X114315000Y-93050000I0J150000D01*
G01*
X114315000Y-91700000D01*
G75*
G02*
X114465000Y-91550000I150000J0D01*
G01*
X114765000Y-91550000D01*
G75*
G02*
X114915000Y-91700000I0J-150000D01*
G01*
X114915000Y-93050000D01*
G75*
G02*
X114765000Y-93200000I-150000J0D01*
G01*
G37*
G36*
G01*
X116035000Y-93200000D02*
X115735000Y-93200000D01*
G75*
G02*
X115585000Y-93050000I0J150000D01*
G01*
X115585000Y-91700000D01*
G75*
G02*
X115735000Y-91550000I150000J0D01*
G01*
X116035000Y-91550000D01*
G75*
G02*
X116185000Y-91700000I0J-150000D01*
G01*
X116185000Y-93050000D01*
G75*
G02*
X116035000Y-93200000I-150000J0D01*
G01*
G37*
G36*
G01*
X117305000Y-93200000D02*
X117005000Y-93200000D01*
G75*
G02*
X116855000Y-93050000I0J150000D01*
G01*
X116855000Y-91700000D01*
G75*
G02*
X117005000Y-91550000I150000J0D01*
G01*
X117305000Y-91550000D01*
G75*
G02*
X117455000Y-91700000I0J-150000D01*
G01*
X117455000Y-93050000D01*
G75*
G02*
X117305000Y-93200000I-150000J0D01*
G01*
G37*
G36*
G01*
X117305000Y-98450000D02*
X117005000Y-98450000D01*
G75*
G02*
X116855000Y-98300000I0J150000D01*
G01*
X116855000Y-96950000D01*
G75*
G02*
X117005000Y-96800000I150000J0D01*
G01*
X117305000Y-96800000D01*
G75*
G02*
X117455000Y-96950000I0J-150000D01*
G01*
X117455000Y-98300000D01*
G75*
G02*
X117305000Y-98450000I-150000J0D01*
G01*
G37*
G36*
G01*
X116035000Y-98450000D02*
X115735000Y-98450000D01*
G75*
G02*
X115585000Y-98300000I0J150000D01*
G01*
X115585000Y-96950000D01*
G75*
G02*
X115735000Y-96800000I150000J0D01*
G01*
X116035000Y-96800000D01*
G75*
G02*
X116185000Y-96950000I0J-150000D01*
G01*
X116185000Y-98300000D01*
G75*
G02*
X116035000Y-98450000I-150000J0D01*
G01*
G37*
G36*
G01*
X114765000Y-98450000D02*
X114465000Y-98450000D01*
G75*
G02*
X114315000Y-98300000I0J150000D01*
G01*
X114315000Y-96950000D01*
G75*
G02*
X114465000Y-96800000I150000J0D01*
G01*
X114765000Y-96800000D01*
G75*
G02*
X114915000Y-96950000I0J-150000D01*
G01*
X114915000Y-98300000D01*
G75*
G02*
X114765000Y-98450000I-150000J0D01*
G01*
G37*
G36*
G01*
X113495000Y-98450000D02*
X113195000Y-98450000D01*
G75*
G02*
X113045000Y-98300000I0J150000D01*
G01*
X113045000Y-96950000D01*
G75*
G02*
X113195000Y-96800000I150000J0D01*
G01*
X113495000Y-96800000D01*
G75*
G02*
X113645000Y-96950000I0J-150000D01*
G01*
X113645000Y-98300000D01*
G75*
G02*
X113495000Y-98450000I-150000J0D01*
G01*
G37*
G04 #@! TD*
D10*
G04 #@! TO.C,J1*
X108045000Y-97950000D03*
X108045000Y-97150000D03*
X108045000Y-92250000D03*
X108045000Y-91450000D03*
X108045000Y-91450000D03*
X108045000Y-92250000D03*
X108045000Y-97150000D03*
X108045000Y-97950000D03*
D11*
X108045000Y-92950000D03*
X108045000Y-93450000D03*
X108045000Y-93950000D03*
X108045000Y-94950000D03*
X108045000Y-95450000D03*
X108045000Y-95950000D03*
X108045000Y-96450000D03*
X108045000Y-94450000D03*
G04 #@! TD*
M02*
