G04 #@! TF.GenerationSoftware,KiCad,Pcbnew,(5.1.6)-1*
G04 #@! TF.CreationDate,2020-11-21T21:50:24+04:00*
G04 #@! TF.ProjectId,CH330N-USB-TO-UART-BOARD,43483333-304e-42d5-9553-422d544f2d55,rev?*
G04 #@! TF.SameCoordinates,Original*
G04 #@! TF.FileFunction,Copper,L1,Top*
G04 #@! TF.FilePolarity,Positive*
%FSLAX46Y46*%
G04 Gerber Fmt 4.6, Leading zero omitted, Abs format (unit mm)*
G04 Created by KiCad (PCBNEW (5.1.6)-1) date 2020-11-21 21:50:24*
%MOMM*%
%LPD*%
G01*
G04 APERTURE LIST*
G04 #@! TA.AperFunction,SMDPad,CuDef*
%ADD10R,1.450000X0.600000*%
G04 #@! TD*
G04 #@! TA.AperFunction,SMDPad,CuDef*
%ADD11R,1.450000X0.300000*%
G04 #@! TD*
G04 #@! TA.AperFunction,ComponentPad*
%ADD12O,2.100000X1.000000*%
G04 #@! TD*
G04 #@! TA.AperFunction,ComponentPad*
%ADD13O,1.600000X1.000000*%
G04 #@! TD*
G04 #@! TA.AperFunction,ComponentPad*
%ADD14O,1.700000X1.700000*%
G04 #@! TD*
G04 #@! TA.AperFunction,ComponentPad*
%ADD15R,1.700000X1.700000*%
G04 #@! TD*
G04 #@! TA.AperFunction,ViaPad*
%ADD16C,0.800000*%
G04 #@! TD*
G04 #@! TA.AperFunction,Conductor*
%ADD17C,0.250000*%
G04 #@! TD*
G04 #@! TA.AperFunction,Conductor*
%ADD18C,0.254000*%
G04 #@! TD*
G04 APERTURE END LIST*
G04 #@! TO.P,D1,2*
G04 #@! TO.N,Net-(D1-Pad2)*
G04 #@! TA.AperFunction,SMDPad,CuDef*
G36*
G01*
X102493750Y-102600000D02*
X103006250Y-102600000D01*
G75*
G02*
X103225000Y-102818750I0J-218750D01*
G01*
X103225000Y-103256250D01*
G75*
G02*
X103006250Y-103475000I-218750J0D01*
G01*
X102493750Y-103475000D01*
G75*
G02*
X102275000Y-103256250I0J218750D01*
G01*
X102275000Y-102818750D01*
G75*
G02*
X102493750Y-102600000I218750J0D01*
G01*
G37*
G04 #@! TD.AperFunction*
G04 #@! TO.P,D1,1*
G04 #@! TO.N,/RX*
G04 #@! TA.AperFunction,SMDPad,CuDef*
G36*
G01*
X102493750Y-101025000D02*
X103006250Y-101025000D01*
G75*
G02*
X103225000Y-101243750I0J-218750D01*
G01*
X103225000Y-101681250D01*
G75*
G02*
X103006250Y-101900000I-218750J0D01*
G01*
X102493750Y-101900000D01*
G75*
G02*
X102275000Y-101681250I0J218750D01*
G01*
X102275000Y-101243750D01*
G75*
G02*
X102493750Y-101025000I218750J0D01*
G01*
G37*
G04 #@! TD.AperFunction*
G04 #@! TD*
G04 #@! TO.P,D2,2*
G04 #@! TO.N,Net-(D2-Pad2)*
G04 #@! TA.AperFunction,SMDPad,CuDef*
G36*
G01*
X103006250Y-86900000D02*
X102493750Y-86900000D01*
G75*
G02*
X102275000Y-86681250I0J218750D01*
G01*
X102275000Y-86243750D01*
G75*
G02*
X102493750Y-86025000I218750J0D01*
G01*
X103006250Y-86025000D01*
G75*
G02*
X103225000Y-86243750I0J-218750D01*
G01*
X103225000Y-86681250D01*
G75*
G02*
X103006250Y-86900000I-218750J0D01*
G01*
G37*
G04 #@! TD.AperFunction*
G04 #@! TO.P,D2,1*
G04 #@! TO.N,/TX*
G04 #@! TA.AperFunction,SMDPad,CuDef*
G36*
G01*
X103006250Y-88475000D02*
X102493750Y-88475000D01*
G75*
G02*
X102275000Y-88256250I0J218750D01*
G01*
X102275000Y-87818750D01*
G75*
G02*
X102493750Y-87600000I218750J0D01*
G01*
X103006250Y-87600000D01*
G75*
G02*
X103225000Y-87818750I0J-218750D01*
G01*
X103225000Y-88256250D01*
G75*
G02*
X103006250Y-88475000I-218750J0D01*
G01*
G37*
G04 #@! TD.AperFunction*
G04 #@! TD*
G04 #@! TO.P,R1,2*
G04 #@! TO.N,Net-(D1-Pad2)*
G04 #@! TA.AperFunction,SMDPad,CuDef*
G36*
G01*
X105743750Y-102600000D02*
X106256250Y-102600000D01*
G75*
G02*
X106475000Y-102818750I0J-218750D01*
G01*
X106475000Y-103256250D01*
G75*
G02*
X106256250Y-103475000I-218750J0D01*
G01*
X105743750Y-103475000D01*
G75*
G02*
X105525000Y-103256250I0J218750D01*
G01*
X105525000Y-102818750D01*
G75*
G02*
X105743750Y-102600000I218750J0D01*
G01*
G37*
G04 #@! TD.AperFunction*
G04 #@! TO.P,R1,1*
G04 #@! TO.N,/VBUS*
G04 #@! TA.AperFunction,SMDPad,CuDef*
G36*
G01*
X105743750Y-101025000D02*
X106256250Y-101025000D01*
G75*
G02*
X106475000Y-101243750I0J-218750D01*
G01*
X106475000Y-101681250D01*
G75*
G02*
X106256250Y-101900000I-218750J0D01*
G01*
X105743750Y-101900000D01*
G75*
G02*
X105525000Y-101681250I0J218750D01*
G01*
X105525000Y-101243750D01*
G75*
G02*
X105743750Y-101025000I218750J0D01*
G01*
G37*
G04 #@! TD.AperFunction*
G04 #@! TD*
G04 #@! TO.P,C1,2*
G04 #@! TO.N,GND*
G04 #@! TA.AperFunction,SMDPad,CuDef*
G36*
G01*
X115600000Y-102506250D02*
X115600000Y-101993750D01*
G75*
G02*
X115818750Y-101775000I218750J0D01*
G01*
X116256250Y-101775000D01*
G75*
G02*
X116475000Y-101993750I0J-218750D01*
G01*
X116475000Y-102506250D01*
G75*
G02*
X116256250Y-102725000I-218750J0D01*
G01*
X115818750Y-102725000D01*
G75*
G02*
X115600000Y-102506250I0J218750D01*
G01*
G37*
G04 #@! TD.AperFunction*
G04 #@! TO.P,C1,1*
G04 #@! TO.N,/VBUS*
G04 #@! TA.AperFunction,SMDPad,CuDef*
G36*
G01*
X114025000Y-102506250D02*
X114025000Y-101993750D01*
G75*
G02*
X114243750Y-101775000I218750J0D01*
G01*
X114681250Y-101775000D01*
G75*
G02*
X114900000Y-101993750I0J-218750D01*
G01*
X114900000Y-102506250D01*
G75*
G02*
X114681250Y-102725000I-218750J0D01*
G01*
X114243750Y-102725000D01*
G75*
G02*
X114025000Y-102506250I0J218750D01*
G01*
G37*
G04 #@! TD.AperFunction*
G04 #@! TD*
G04 #@! TO.P,C2,2*
G04 #@! TO.N,GND*
G04 #@! TA.AperFunction,SMDPad,CuDef*
G36*
G01*
X114900000Y-86993750D02*
X114900000Y-87506250D01*
G75*
G02*
X114681250Y-87725000I-218750J0D01*
G01*
X114243750Y-87725000D01*
G75*
G02*
X114025000Y-87506250I0J218750D01*
G01*
X114025000Y-86993750D01*
G75*
G02*
X114243750Y-86775000I218750J0D01*
G01*
X114681250Y-86775000D01*
G75*
G02*
X114900000Y-86993750I0J-218750D01*
G01*
G37*
G04 #@! TD.AperFunction*
G04 #@! TO.P,C2,1*
G04 #@! TO.N,Net-(C2-Pad1)*
G04 #@! TA.AperFunction,SMDPad,CuDef*
G36*
G01*
X116475000Y-86993750D02*
X116475000Y-87506250D01*
G75*
G02*
X116256250Y-87725000I-218750J0D01*
G01*
X115818750Y-87725000D01*
G75*
G02*
X115600000Y-87506250I0J218750D01*
G01*
X115600000Y-86993750D01*
G75*
G02*
X115818750Y-86775000I218750J0D01*
G01*
X116256250Y-86775000D01*
G75*
G02*
X116475000Y-86993750I0J-218750D01*
G01*
G37*
G04 #@! TD.AperFunction*
G04 #@! TD*
G04 #@! TO.P,R2,2*
G04 #@! TO.N,Net-(D2-Pad2)*
G04 #@! TA.AperFunction,SMDPad,CuDef*
G36*
G01*
X106256250Y-86862500D02*
X105743750Y-86862500D01*
G75*
G02*
X105525000Y-86643750I0J218750D01*
G01*
X105525000Y-86206250D01*
G75*
G02*
X105743750Y-85987500I218750J0D01*
G01*
X106256250Y-85987500D01*
G75*
G02*
X106475000Y-86206250I0J-218750D01*
G01*
X106475000Y-86643750D01*
G75*
G02*
X106256250Y-86862500I-218750J0D01*
G01*
G37*
G04 #@! TD.AperFunction*
G04 #@! TO.P,R2,1*
G04 #@! TO.N,/VBUS*
G04 #@! TA.AperFunction,SMDPad,CuDef*
G36*
G01*
X106256250Y-88437500D02*
X105743750Y-88437500D01*
G75*
G02*
X105525000Y-88218750I0J218750D01*
G01*
X105525000Y-87781250D01*
G75*
G02*
X105743750Y-87562500I218750J0D01*
G01*
X106256250Y-87562500D01*
G75*
G02*
X106475000Y-87781250I0J-218750D01*
G01*
X106475000Y-88218750D01*
G75*
G02*
X106256250Y-88437500I-218750J0D01*
G01*
G37*
G04 #@! TD.AperFunction*
G04 #@! TD*
G04 #@! TO.P,U1,8*
G04 #@! TO.N,Net-(C2-Pad1)*
G04 #@! TA.AperFunction,SMDPad,CuDef*
G36*
G01*
X113495000Y-93200000D02*
X113195000Y-93200000D01*
G75*
G02*
X113045000Y-93050000I0J150000D01*
G01*
X113045000Y-91700000D01*
G75*
G02*
X113195000Y-91550000I150000J0D01*
G01*
X113495000Y-91550000D01*
G75*
G02*
X113645000Y-91700000I0J-150000D01*
G01*
X113645000Y-93050000D01*
G75*
G02*
X113495000Y-93200000I-150000J0D01*
G01*
G37*
G04 #@! TD.AperFunction*
G04 #@! TO.P,U1,7*
G04 #@! TO.N,/RX*
G04 #@! TA.AperFunction,SMDPad,CuDef*
G36*
G01*
X114765000Y-93200000D02*
X114465000Y-93200000D01*
G75*
G02*
X114315000Y-93050000I0J150000D01*
G01*
X114315000Y-91700000D01*
G75*
G02*
X114465000Y-91550000I150000J0D01*
G01*
X114765000Y-91550000D01*
G75*
G02*
X114915000Y-91700000I0J-150000D01*
G01*
X114915000Y-93050000D01*
G75*
G02*
X114765000Y-93200000I-150000J0D01*
G01*
G37*
G04 #@! TD.AperFunction*
G04 #@! TO.P,U1,6*
G04 #@! TO.N,/TX*
G04 #@! TA.AperFunction,SMDPad,CuDef*
G36*
G01*
X116035000Y-93200000D02*
X115735000Y-93200000D01*
G75*
G02*
X115585000Y-93050000I0J150000D01*
G01*
X115585000Y-91700000D01*
G75*
G02*
X115735000Y-91550000I150000J0D01*
G01*
X116035000Y-91550000D01*
G75*
G02*
X116185000Y-91700000I0J-150000D01*
G01*
X116185000Y-93050000D01*
G75*
G02*
X116035000Y-93200000I-150000J0D01*
G01*
G37*
G04 #@! TD.AperFunction*
G04 #@! TO.P,U1,5*
G04 #@! TO.N,/VBUS*
G04 #@! TA.AperFunction,SMDPad,CuDef*
G36*
G01*
X117305000Y-93200000D02*
X117005000Y-93200000D01*
G75*
G02*
X116855000Y-93050000I0J150000D01*
G01*
X116855000Y-91700000D01*
G75*
G02*
X117005000Y-91550000I150000J0D01*
G01*
X117305000Y-91550000D01*
G75*
G02*
X117455000Y-91700000I0J-150000D01*
G01*
X117455000Y-93050000D01*
G75*
G02*
X117305000Y-93200000I-150000J0D01*
G01*
G37*
G04 #@! TD.AperFunction*
G04 #@! TO.P,U1,4*
G04 #@! TO.N,/RTS*
G04 #@! TA.AperFunction,SMDPad,CuDef*
G36*
G01*
X117305000Y-98450000D02*
X117005000Y-98450000D01*
G75*
G02*
X116855000Y-98300000I0J150000D01*
G01*
X116855000Y-96950000D01*
G75*
G02*
X117005000Y-96800000I150000J0D01*
G01*
X117305000Y-96800000D01*
G75*
G02*
X117455000Y-96950000I0J-150000D01*
G01*
X117455000Y-98300000D01*
G75*
G02*
X117305000Y-98450000I-150000J0D01*
G01*
G37*
G04 #@! TD.AperFunction*
G04 #@! TO.P,U1,3*
G04 #@! TO.N,GND*
G04 #@! TA.AperFunction,SMDPad,CuDef*
G36*
G01*
X116035000Y-98450000D02*
X115735000Y-98450000D01*
G75*
G02*
X115585000Y-98300000I0J150000D01*
G01*
X115585000Y-96950000D01*
G75*
G02*
X115735000Y-96800000I150000J0D01*
G01*
X116035000Y-96800000D01*
G75*
G02*
X116185000Y-96950000I0J-150000D01*
G01*
X116185000Y-98300000D01*
G75*
G02*
X116035000Y-98450000I-150000J0D01*
G01*
G37*
G04 #@! TD.AperFunction*
G04 #@! TO.P,U1,2*
G04 #@! TO.N,/D-*
G04 #@! TA.AperFunction,SMDPad,CuDef*
G36*
G01*
X114765000Y-98450000D02*
X114465000Y-98450000D01*
G75*
G02*
X114315000Y-98300000I0J150000D01*
G01*
X114315000Y-96950000D01*
G75*
G02*
X114465000Y-96800000I150000J0D01*
G01*
X114765000Y-96800000D01*
G75*
G02*
X114915000Y-96950000I0J-150000D01*
G01*
X114915000Y-98300000D01*
G75*
G02*
X114765000Y-98450000I-150000J0D01*
G01*
G37*
G04 #@! TD.AperFunction*
G04 #@! TO.P,U1,1*
G04 #@! TO.N,/D+*
G04 #@! TA.AperFunction,SMDPad,CuDef*
G36*
G01*
X113495000Y-98450000D02*
X113195000Y-98450000D01*
G75*
G02*
X113045000Y-98300000I0J150000D01*
G01*
X113045000Y-96950000D01*
G75*
G02*
X113195000Y-96800000I150000J0D01*
G01*
X113495000Y-96800000D01*
G75*
G02*
X113645000Y-96950000I0J-150000D01*
G01*
X113645000Y-98300000D01*
G75*
G02*
X113495000Y-98450000I-150000J0D01*
G01*
G37*
G04 #@! TD.AperFunction*
G04 #@! TD*
D10*
G04 #@! TO.P,J1,B1*
G04 #@! TO.N,GND*
X108045000Y-97950000D03*
G04 #@! TO.P,J1,A9*
G04 #@! TO.N,/VBUS*
X108045000Y-97150000D03*
G04 #@! TO.P,J1,B9*
X108045000Y-92250000D03*
G04 #@! TO.P,J1,B12*
G04 #@! TO.N,GND*
X108045000Y-91450000D03*
G04 #@! TO.P,J1,A1*
X108045000Y-91450000D03*
G04 #@! TO.P,J1,A4*
G04 #@! TO.N,/VBUS*
X108045000Y-92250000D03*
G04 #@! TO.P,J1,B4*
X108045000Y-97150000D03*
G04 #@! TO.P,J1,A12*
G04 #@! TO.N,GND*
X108045000Y-97950000D03*
D11*
G04 #@! TO.P,J1,B8*
G04 #@! TO.N,Net-(J1-PadB8)*
X108045000Y-92950000D03*
G04 #@! TO.P,J1,A5*
G04 #@! TO.N,Net-(J1-PadA5)*
X108045000Y-93450000D03*
G04 #@! TO.P,J1,B7*
G04 #@! TO.N,/D-*
X108045000Y-93950000D03*
G04 #@! TO.P,J1,A7*
X108045000Y-94950000D03*
G04 #@! TO.P,J1,B6*
G04 #@! TO.N,/D+*
X108045000Y-95450000D03*
G04 #@! TO.P,J1,A8*
G04 #@! TO.N,Net-(J1-PadA8)*
X108045000Y-95950000D03*
G04 #@! TO.P,J1,B5*
G04 #@! TO.N,Net-(J1-PadB5)*
X108045000Y-96450000D03*
G04 #@! TO.P,J1,A6*
G04 #@! TO.N,/D+*
X108045000Y-94450000D03*
D12*
G04 #@! TO.P,J1,S1*
G04 #@! TO.N,Net-(J1-PadS1)*
X107130000Y-99020000D03*
X107130000Y-90380000D03*
D13*
X102950000Y-90380000D03*
X102950000Y-99020000D03*
G04 #@! TD*
D14*
G04 #@! TO.P,J2,5*
G04 #@! TO.N,/RTS*
X127500000Y-100120000D03*
G04 #@! TO.P,J2,4*
G04 #@! TO.N,/RX*
X127500000Y-97580000D03*
G04 #@! TO.P,J2,3*
G04 #@! TO.N,/TX*
X127500000Y-95040000D03*
G04 #@! TO.P,J2,2*
G04 #@! TO.N,GND*
X127500000Y-92500000D03*
D15*
G04 #@! TO.P,J2,1*
G04 #@! TO.N,/VBUS*
X127500000Y-89960000D03*
G04 #@! TD*
D16*
G04 #@! TO.N,/RX*
X101250000Y-101000000D03*
X114750000Y-90250000D03*
G04 #@! TO.N,/TX*
X101250000Y-88750000D03*
X116000000Y-90250000D03*
G04 #@! TD*
D17*
G04 #@! TO.N,GND*
X108045000Y-97950000D02*
X108045000Y-98045000D01*
X108045000Y-98045000D02*
X109000000Y-99000000D01*
G04 #@! TO.N,/VBUS*
X105750000Y-95615002D02*
X107284998Y-97150000D01*
X107284998Y-97150000D02*
X108045000Y-97150000D01*
X105750000Y-93784998D02*
X105750000Y-95615002D01*
X108045000Y-92250000D02*
X107284998Y-92250000D01*
X114120000Y-102250000D02*
X114462500Y-102250000D01*
X109020000Y-97150000D02*
X114120000Y-102250000D01*
X108045000Y-97150000D02*
X109020000Y-97150000D01*
X119570000Y-89960000D02*
X117155000Y-92375000D01*
X127500000Y-89960000D02*
X119570000Y-89960000D01*
X106787500Y-102250000D02*
X106000000Y-101462500D01*
X114462500Y-102250000D02*
X106787500Y-102250000D01*
X107284998Y-92250000D02*
X106017499Y-93517499D01*
X106017499Y-93517499D02*
X105750000Y-93784998D01*
X105000000Y-92500000D02*
X106017499Y-93517499D01*
X106000000Y-88000000D02*
X105000000Y-89000000D01*
X105000000Y-89000000D02*
X105000000Y-92500000D01*
X108805002Y-92250000D02*
X108045000Y-92250000D01*
X110555002Y-94000000D02*
X108805002Y-92250000D01*
X116355000Y-94000000D02*
X110555002Y-94000000D01*
X117155000Y-92375000D02*
X117155000Y-93200000D01*
X117155000Y-93200000D02*
X116355000Y-94000000D01*
G04 #@! TO.N,Net-(C2-Pad1)*
X113345000Y-89942500D02*
X113345000Y-92375000D01*
X116037500Y-87250000D02*
X113345000Y-89942500D01*
G04 #@! TO.N,Net-(D1-Pad2)*
X106000000Y-103037500D02*
X102750000Y-103037500D01*
G04 #@! TO.N,/RX*
X114750000Y-92240000D02*
X114615000Y-92375000D01*
X114750000Y-90250000D02*
X114750000Y-92240000D01*
X101712500Y-101462500D02*
X101250000Y-101000000D01*
X102750000Y-101462500D02*
X101712500Y-101462500D01*
G04 #@! TO.N,Net-(D2-Pad2)*
X102787500Y-86425000D02*
X102750000Y-86462500D01*
X106000000Y-86425000D02*
X102787500Y-86425000D01*
G04 #@! TO.N,/TX*
X116000000Y-92260000D02*
X115885000Y-92375000D01*
X116000000Y-90250000D02*
X116000000Y-92260000D01*
X101962500Y-88037500D02*
X101250000Y-88750000D01*
X102750000Y-88037500D02*
X101962500Y-88037500D01*
G04 #@! TO.N,/D-*
X109050000Y-94950000D02*
X108045000Y-94950000D01*
X109250000Y-94750000D02*
X109050000Y-94950000D01*
X109250000Y-94180000D02*
X109250000Y-94750000D01*
X108045000Y-93950000D02*
X109020000Y-93950000D01*
X109020000Y-93950000D02*
X109250000Y-94180000D01*
X108045000Y-94950000D02*
X112765000Y-94950000D01*
X114615000Y-96800000D02*
X114615000Y-97625000D01*
X112765000Y-94950000D02*
X114615000Y-96800000D01*
G04 #@! TO.N,/D+*
X106950000Y-95450000D02*
X108045000Y-95450000D01*
X106750000Y-95250000D02*
X106950000Y-95450000D01*
X106750000Y-94642499D02*
X106750000Y-95250000D01*
X108045000Y-94450000D02*
X106942499Y-94450000D01*
X106942499Y-94450000D02*
X106750000Y-94642499D01*
X111170000Y-95450000D02*
X113345000Y-97625000D01*
X108045000Y-95450000D02*
X111170000Y-95450000D01*
G04 #@! TO.N,/RTS*
X125005000Y-97625000D02*
X127500000Y-100120000D01*
X117155000Y-97625000D02*
X125005000Y-97625000D01*
G04 #@! TD*
D18*
G04 #@! TO.N,GND*
G36*
X129640001Y-104640000D02*
G01*
X100360000Y-104640000D01*
X100360000Y-102818750D01*
X101938380Y-102818750D01*
X101938380Y-103256250D01*
X101949051Y-103364597D01*
X101980655Y-103468781D01*
X102031977Y-103564797D01*
X102101044Y-103648956D01*
X102185203Y-103718023D01*
X102281219Y-103769345D01*
X102385403Y-103800949D01*
X102493750Y-103811620D01*
X103006250Y-103811620D01*
X103114597Y-103800949D01*
X103218781Y-103769345D01*
X103314797Y-103718023D01*
X103398956Y-103648956D01*
X103468023Y-103564797D01*
X103503994Y-103497500D01*
X105246006Y-103497500D01*
X105281977Y-103564797D01*
X105351044Y-103648956D01*
X105435203Y-103718023D01*
X105531219Y-103769345D01*
X105635403Y-103800949D01*
X105743750Y-103811620D01*
X106256250Y-103811620D01*
X106364597Y-103800949D01*
X106468781Y-103769345D01*
X106564797Y-103718023D01*
X106648956Y-103648956D01*
X106718023Y-103564797D01*
X106769345Y-103468781D01*
X106800949Y-103364597D01*
X106811620Y-103256250D01*
X106811620Y-102818750D01*
X106800997Y-102710895D01*
X106810081Y-102710000D01*
X113727991Y-102710000D01*
X113730655Y-102718781D01*
X113781977Y-102814797D01*
X113851044Y-102898956D01*
X113935203Y-102968023D01*
X114031219Y-103019345D01*
X114135403Y-103050949D01*
X114243750Y-103061620D01*
X114681250Y-103061620D01*
X114789597Y-103050949D01*
X114893781Y-103019345D01*
X114989797Y-102968023D01*
X115006091Y-102954651D01*
X115010498Y-102969180D01*
X115069463Y-103079494D01*
X115148815Y-103176185D01*
X115245506Y-103255537D01*
X115355820Y-103314502D01*
X115475518Y-103350812D01*
X115600000Y-103363072D01*
X115751750Y-103360000D01*
X115910500Y-103201250D01*
X115910500Y-102377000D01*
X116164500Y-102377000D01*
X116164500Y-103201250D01*
X116323250Y-103360000D01*
X116475000Y-103363072D01*
X116599482Y-103350812D01*
X116719180Y-103314502D01*
X116829494Y-103255537D01*
X116926185Y-103176185D01*
X117005537Y-103079494D01*
X117064502Y-102969180D01*
X117100812Y-102849482D01*
X117113072Y-102725000D01*
X117110000Y-102535750D01*
X116951250Y-102377000D01*
X116164500Y-102377000D01*
X115910500Y-102377000D01*
X115890500Y-102377000D01*
X115890500Y-102123000D01*
X115910500Y-102123000D01*
X115910500Y-101298750D01*
X116164500Y-101298750D01*
X116164500Y-102123000D01*
X116951250Y-102123000D01*
X117110000Y-101964250D01*
X117113072Y-101775000D01*
X117100812Y-101650518D01*
X117064502Y-101530820D01*
X117005537Y-101420506D01*
X116926185Y-101323815D01*
X116829494Y-101244463D01*
X116719180Y-101185498D01*
X116599482Y-101149188D01*
X116475000Y-101136928D01*
X116323250Y-101140000D01*
X116164500Y-101298750D01*
X115910500Y-101298750D01*
X115751750Y-101140000D01*
X115600000Y-101136928D01*
X115475518Y-101149188D01*
X115355820Y-101185498D01*
X115245506Y-101244463D01*
X115148815Y-101323815D01*
X115069463Y-101420506D01*
X115010498Y-101530820D01*
X115006091Y-101545349D01*
X114989797Y-101531977D01*
X114893781Y-101480655D01*
X114789597Y-101449051D01*
X114681250Y-101438380D01*
X114243750Y-101438380D01*
X114135403Y-101449051D01*
X114031219Y-101480655D01*
X114011652Y-101491114D01*
X109361245Y-96840708D01*
X109346842Y-96823158D01*
X109276798Y-96765674D01*
X109196886Y-96722960D01*
X109110176Y-96696657D01*
X109091316Y-96694799D01*
X109100152Y-96665671D01*
X109106620Y-96600000D01*
X109106620Y-96300000D01*
X109100152Y-96234329D01*
X109089738Y-96200000D01*
X109100152Y-96165671D01*
X109106620Y-96100000D01*
X109106620Y-95910000D01*
X110979463Y-95910000D01*
X112708380Y-97638918D01*
X112708380Y-98300000D01*
X112717730Y-98394935D01*
X112745422Y-98486221D01*
X112790390Y-98570352D01*
X112850908Y-98644092D01*
X112924648Y-98704610D01*
X113008779Y-98749578D01*
X113100065Y-98777270D01*
X113195000Y-98786620D01*
X113495000Y-98786620D01*
X113589935Y-98777270D01*
X113681221Y-98749578D01*
X113765352Y-98704610D01*
X113839092Y-98644092D01*
X113899610Y-98570352D01*
X113944578Y-98486221D01*
X113972270Y-98394935D01*
X113980000Y-98316449D01*
X113987730Y-98394935D01*
X114015422Y-98486221D01*
X114060390Y-98570352D01*
X114120908Y-98644092D01*
X114194648Y-98704610D01*
X114278779Y-98749578D01*
X114370065Y-98777270D01*
X114465000Y-98786620D01*
X114765000Y-98786620D01*
X114859935Y-98777270D01*
X114951221Y-98749578D01*
X115008690Y-98718861D01*
X115054463Y-98804494D01*
X115133815Y-98901185D01*
X115230506Y-98980537D01*
X115340820Y-99039502D01*
X115460518Y-99075812D01*
X115585000Y-99088072D01*
X115599250Y-99085000D01*
X115758000Y-98926250D01*
X115758000Y-97752000D01*
X115738000Y-97752000D01*
X115738000Y-97498000D01*
X115758000Y-97498000D01*
X115758000Y-96323750D01*
X116012000Y-96323750D01*
X116012000Y-97498000D01*
X116032000Y-97498000D01*
X116032000Y-97752000D01*
X116012000Y-97752000D01*
X116012000Y-98926250D01*
X116170750Y-99085000D01*
X116185000Y-99088072D01*
X116309482Y-99075812D01*
X116429180Y-99039502D01*
X116539494Y-98980537D01*
X116636185Y-98901185D01*
X116715537Y-98804494D01*
X116761310Y-98718861D01*
X116818779Y-98749578D01*
X116910065Y-98777270D01*
X117005000Y-98786620D01*
X117305000Y-98786620D01*
X117399935Y-98777270D01*
X117491221Y-98749578D01*
X117575352Y-98704610D01*
X117649092Y-98644092D01*
X117709610Y-98570352D01*
X117754578Y-98486221D01*
X117782270Y-98394935D01*
X117791620Y-98300000D01*
X117791620Y-98085000D01*
X124814463Y-98085000D01*
X126402502Y-99673040D01*
X126360539Y-99774348D01*
X126315000Y-100003288D01*
X126315000Y-100236712D01*
X126360539Y-100465652D01*
X126449866Y-100681308D01*
X126579550Y-100875394D01*
X126744606Y-101040450D01*
X126938692Y-101170134D01*
X127154348Y-101259461D01*
X127383288Y-101305000D01*
X127616712Y-101305000D01*
X127845652Y-101259461D01*
X128061308Y-101170134D01*
X128255394Y-101040450D01*
X128420450Y-100875394D01*
X128550134Y-100681308D01*
X128639461Y-100465652D01*
X128685000Y-100236712D01*
X128685000Y-100003288D01*
X128639461Y-99774348D01*
X128550134Y-99558692D01*
X128420450Y-99364606D01*
X128255394Y-99199550D01*
X128061308Y-99069866D01*
X127845652Y-98980539D01*
X127616712Y-98935000D01*
X127383288Y-98935000D01*
X127154348Y-98980539D01*
X127053040Y-99022502D01*
X125493826Y-97463288D01*
X126315000Y-97463288D01*
X126315000Y-97696712D01*
X126360539Y-97925652D01*
X126449866Y-98141308D01*
X126579550Y-98335394D01*
X126744606Y-98500450D01*
X126938692Y-98630134D01*
X127154348Y-98719461D01*
X127383288Y-98765000D01*
X127616712Y-98765000D01*
X127845652Y-98719461D01*
X128061308Y-98630134D01*
X128255394Y-98500450D01*
X128420450Y-98335394D01*
X128550134Y-98141308D01*
X128639461Y-97925652D01*
X128685000Y-97696712D01*
X128685000Y-97463288D01*
X128639461Y-97234348D01*
X128550134Y-97018692D01*
X128420450Y-96824606D01*
X128255394Y-96659550D01*
X128061308Y-96529866D01*
X127845652Y-96440539D01*
X127616712Y-96395000D01*
X127383288Y-96395000D01*
X127154348Y-96440539D01*
X126938692Y-96529866D01*
X126744606Y-96659550D01*
X126579550Y-96824606D01*
X126449866Y-97018692D01*
X126360539Y-97234348D01*
X126315000Y-97463288D01*
X125493826Y-97463288D01*
X125346245Y-97315708D01*
X125331842Y-97298158D01*
X125261798Y-97240674D01*
X125181886Y-97197960D01*
X125095176Y-97171657D01*
X125027590Y-97165000D01*
X125027582Y-97165000D01*
X125005000Y-97162776D01*
X124982418Y-97165000D01*
X117791620Y-97165000D01*
X117791620Y-96950000D01*
X117782270Y-96855065D01*
X117754578Y-96763779D01*
X117709610Y-96679648D01*
X117649092Y-96605908D01*
X117575352Y-96545390D01*
X117491221Y-96500422D01*
X117399935Y-96472730D01*
X117305000Y-96463380D01*
X117005000Y-96463380D01*
X116910065Y-96472730D01*
X116818779Y-96500422D01*
X116761310Y-96531139D01*
X116715537Y-96445506D01*
X116636185Y-96348815D01*
X116539494Y-96269463D01*
X116429180Y-96210498D01*
X116309482Y-96174188D01*
X116185000Y-96161928D01*
X116170750Y-96165000D01*
X116012000Y-96323750D01*
X115758000Y-96323750D01*
X115599250Y-96165000D01*
X115585000Y-96161928D01*
X115460518Y-96174188D01*
X115340820Y-96210498D01*
X115230506Y-96269463D01*
X115133815Y-96348815D01*
X115054463Y-96445506D01*
X115008690Y-96531139D01*
X114974373Y-96512797D01*
X114941842Y-96473158D01*
X114924299Y-96458761D01*
X113106245Y-94640708D01*
X113091842Y-94623158D01*
X113021798Y-94565674D01*
X112941886Y-94522960D01*
X112855176Y-94496657D01*
X112787590Y-94490000D01*
X112787582Y-94490000D01*
X112765000Y-94487776D01*
X112742418Y-94490000D01*
X109710000Y-94490000D01*
X109710000Y-94202581D01*
X109712224Y-94179999D01*
X109710000Y-94157417D01*
X109710000Y-94157410D01*
X109703343Y-94089824D01*
X109677040Y-94003114D01*
X109634326Y-93923202D01*
X109576842Y-93853158D01*
X109559293Y-93838756D01*
X109361245Y-93640708D01*
X109346842Y-93623158D01*
X109276798Y-93565674D01*
X109196886Y-93522960D01*
X109110176Y-93496657D01*
X109106620Y-93496307D01*
X109106620Y-93300000D01*
X109100152Y-93234329D01*
X109089738Y-93200000D01*
X109093166Y-93188701D01*
X110213761Y-94309297D01*
X110228160Y-94326842D01*
X110245704Y-94341240D01*
X110245706Y-94341242D01*
X110289326Y-94377040D01*
X110298204Y-94384326D01*
X110378116Y-94427040D01*
X110464826Y-94453343D01*
X110532412Y-94460000D01*
X110532420Y-94460000D01*
X110555002Y-94462224D01*
X110577584Y-94460000D01*
X116332418Y-94460000D01*
X116355000Y-94462224D01*
X116377582Y-94460000D01*
X116377590Y-94460000D01*
X116445176Y-94453343D01*
X116531886Y-94427040D01*
X116611798Y-94384326D01*
X116681842Y-94326842D01*
X116696245Y-94309292D01*
X117464297Y-93541241D01*
X117481842Y-93526842D01*
X117506615Y-93496657D01*
X117514373Y-93487203D01*
X117575352Y-93454610D01*
X117649092Y-93394092D01*
X117709610Y-93320352D01*
X117754578Y-93236221D01*
X117782270Y-93144935D01*
X117791620Y-93050000D01*
X117791620Y-92856890D01*
X126058524Y-92856890D01*
X126103175Y-93004099D01*
X126228359Y-93266920D01*
X126402412Y-93500269D01*
X126618645Y-93695178D01*
X126868748Y-93844157D01*
X127095918Y-93924741D01*
X126938692Y-93989866D01*
X126744606Y-94119550D01*
X126579550Y-94284606D01*
X126449866Y-94478692D01*
X126360539Y-94694348D01*
X126315000Y-94923288D01*
X126315000Y-95156712D01*
X126360539Y-95385652D01*
X126449866Y-95601308D01*
X126579550Y-95795394D01*
X126744606Y-95960450D01*
X126938692Y-96090134D01*
X127154348Y-96179461D01*
X127383288Y-96225000D01*
X127616712Y-96225000D01*
X127845652Y-96179461D01*
X128061308Y-96090134D01*
X128255394Y-95960450D01*
X128420450Y-95795394D01*
X128550134Y-95601308D01*
X128639461Y-95385652D01*
X128685000Y-95156712D01*
X128685000Y-94923288D01*
X128639461Y-94694348D01*
X128550134Y-94478692D01*
X128420450Y-94284606D01*
X128255394Y-94119550D01*
X128061308Y-93989866D01*
X127904082Y-93924741D01*
X128131252Y-93844157D01*
X128381355Y-93695178D01*
X128597588Y-93500269D01*
X128771641Y-93266920D01*
X128896825Y-93004099D01*
X128941476Y-92856890D01*
X128820155Y-92627000D01*
X127627000Y-92627000D01*
X127627000Y-92647000D01*
X127373000Y-92647000D01*
X127373000Y-92627000D01*
X126179845Y-92627000D01*
X126058524Y-92856890D01*
X117791620Y-92856890D01*
X117791620Y-92388917D01*
X119760538Y-90420000D01*
X126313380Y-90420000D01*
X126313380Y-90810000D01*
X126319848Y-90875671D01*
X126339004Y-90938819D01*
X126370111Y-90997016D01*
X126411974Y-91048026D01*
X126462984Y-91089889D01*
X126521181Y-91120996D01*
X126584329Y-91140152D01*
X126650000Y-91146620D01*
X126894748Y-91146620D01*
X126868748Y-91155843D01*
X126618645Y-91304822D01*
X126402412Y-91499731D01*
X126228359Y-91733080D01*
X126103175Y-91995901D01*
X126058524Y-92143110D01*
X126179845Y-92373000D01*
X127373000Y-92373000D01*
X127373000Y-92353000D01*
X127627000Y-92353000D01*
X127627000Y-92373000D01*
X128820155Y-92373000D01*
X128941476Y-92143110D01*
X128896825Y-91995901D01*
X128771641Y-91733080D01*
X128597588Y-91499731D01*
X128381355Y-91304822D01*
X128131252Y-91155843D01*
X128105252Y-91146620D01*
X128350000Y-91146620D01*
X128415671Y-91140152D01*
X128478819Y-91120996D01*
X128537016Y-91089889D01*
X128588026Y-91048026D01*
X128629889Y-90997016D01*
X128660996Y-90938819D01*
X128680152Y-90875671D01*
X128686620Y-90810000D01*
X128686620Y-89110000D01*
X128680152Y-89044329D01*
X128660996Y-88981181D01*
X128629889Y-88922984D01*
X128588026Y-88871974D01*
X128537016Y-88830111D01*
X128478819Y-88799004D01*
X128415671Y-88779848D01*
X128350000Y-88773380D01*
X126650000Y-88773380D01*
X126584329Y-88779848D01*
X126521181Y-88799004D01*
X126462984Y-88830111D01*
X126411974Y-88871974D01*
X126370111Y-88922984D01*
X126339004Y-88981181D01*
X126319848Y-89044329D01*
X126313380Y-89110000D01*
X126313380Y-89500000D01*
X119592582Y-89500000D01*
X119570000Y-89497776D01*
X119547418Y-89500000D01*
X119547410Y-89500000D01*
X119479824Y-89506657D01*
X119393114Y-89532960D01*
X119313202Y-89575674D01*
X119264482Y-89615658D01*
X119243158Y-89633158D01*
X119228759Y-89650703D01*
X117580142Y-91299321D01*
X117575352Y-91295390D01*
X117491221Y-91250422D01*
X117399935Y-91222730D01*
X117305000Y-91213380D01*
X117005000Y-91213380D01*
X116910065Y-91222730D01*
X116818779Y-91250422D01*
X116734648Y-91295390D01*
X116660908Y-91355908D01*
X116600390Y-91429648D01*
X116555422Y-91513779D01*
X116527730Y-91605065D01*
X116520000Y-91683551D01*
X116512270Y-91605065D01*
X116484578Y-91513779D01*
X116460000Y-91467796D01*
X116460000Y-90826615D01*
X116468535Y-90820912D01*
X116570912Y-90718535D01*
X116651348Y-90598153D01*
X116706754Y-90464391D01*
X116735000Y-90322391D01*
X116735000Y-90177609D01*
X116706754Y-90035609D01*
X116651348Y-89901847D01*
X116570912Y-89781465D01*
X116468535Y-89679088D01*
X116348153Y-89598652D01*
X116214391Y-89543246D01*
X116072391Y-89515000D01*
X115927609Y-89515000D01*
X115785609Y-89543246D01*
X115651847Y-89598652D01*
X115531465Y-89679088D01*
X115429088Y-89781465D01*
X115375000Y-89862414D01*
X115320912Y-89781465D01*
X115218535Y-89679088D01*
X115098153Y-89598652D01*
X114964391Y-89543246D01*
X114822391Y-89515000D01*
X114677609Y-89515000D01*
X114535609Y-89543246D01*
X114401847Y-89598652D01*
X114281465Y-89679088D01*
X114179088Y-89781465D01*
X114098652Y-89901847D01*
X114043246Y-90035609D01*
X114015000Y-90177609D01*
X114015000Y-90322391D01*
X114043246Y-90464391D01*
X114098652Y-90598153D01*
X114179088Y-90718535D01*
X114281465Y-90820912D01*
X114290000Y-90826615D01*
X114290001Y-91247018D01*
X114278779Y-91250422D01*
X114194648Y-91295390D01*
X114120908Y-91355908D01*
X114060390Y-91429648D01*
X114015422Y-91513779D01*
X113987730Y-91605065D01*
X113980000Y-91683551D01*
X113972270Y-91605065D01*
X113944578Y-91513779D01*
X113899610Y-91429648D01*
X113839092Y-91355908D01*
X113805000Y-91327929D01*
X113805000Y-90133037D01*
X115876418Y-88061620D01*
X116256250Y-88061620D01*
X116364597Y-88050949D01*
X116468781Y-88019345D01*
X116564797Y-87968023D01*
X116648956Y-87898956D01*
X116718023Y-87814797D01*
X116769345Y-87718781D01*
X116800949Y-87614597D01*
X116811620Y-87506250D01*
X116811620Y-86993750D01*
X116800949Y-86885403D01*
X116769345Y-86781219D01*
X116718023Y-86685203D01*
X116648956Y-86601044D01*
X116564797Y-86531977D01*
X116468781Y-86480655D01*
X116364597Y-86449051D01*
X116256250Y-86438380D01*
X115818750Y-86438380D01*
X115710403Y-86449051D01*
X115606219Y-86480655D01*
X115510203Y-86531977D01*
X115493909Y-86545349D01*
X115489502Y-86530820D01*
X115430537Y-86420506D01*
X115351185Y-86323815D01*
X115254494Y-86244463D01*
X115144180Y-86185498D01*
X115024482Y-86149188D01*
X114900000Y-86136928D01*
X114748250Y-86140000D01*
X114589500Y-86298750D01*
X114589500Y-87123000D01*
X114609500Y-87123000D01*
X114609500Y-87377000D01*
X114589500Y-87377000D01*
X114589500Y-87397000D01*
X114335500Y-87397000D01*
X114335500Y-87377000D01*
X113548750Y-87377000D01*
X113390000Y-87535750D01*
X113386928Y-87725000D01*
X113399188Y-87849482D01*
X113435498Y-87969180D01*
X113494463Y-88079494D01*
X113573815Y-88176185D01*
X113670506Y-88255537D01*
X113780820Y-88314502D01*
X113900518Y-88350812D01*
X114025000Y-88363072D01*
X114176750Y-88360000D01*
X114335498Y-88201252D01*
X114335498Y-88301464D01*
X113035708Y-89601255D01*
X113018158Y-89615658D01*
X112960674Y-89685703D01*
X112917960Y-89765615D01*
X112891657Y-89852325D01*
X112885000Y-89919911D01*
X112885000Y-89919918D01*
X112882776Y-89942500D01*
X112885000Y-89965082D01*
X112885001Y-91327928D01*
X112850908Y-91355908D01*
X112790390Y-91429648D01*
X112745422Y-91513779D01*
X112717730Y-91605065D01*
X112708380Y-91700000D01*
X112708380Y-93050000D01*
X112717730Y-93144935D01*
X112745422Y-93236221D01*
X112790390Y-93320352D01*
X112850908Y-93394092D01*
X112924648Y-93454610D01*
X113008779Y-93499578D01*
X113100065Y-93527270D01*
X113195000Y-93536620D01*
X113495000Y-93536620D01*
X113589935Y-93527270D01*
X113681221Y-93499578D01*
X113765352Y-93454610D01*
X113839092Y-93394092D01*
X113899610Y-93320352D01*
X113944578Y-93236221D01*
X113972270Y-93144935D01*
X113980000Y-93066449D01*
X113987730Y-93144935D01*
X114015422Y-93236221D01*
X114060390Y-93320352D01*
X114120908Y-93394092D01*
X114194648Y-93454610D01*
X114278779Y-93499578D01*
X114370065Y-93527270D01*
X114465000Y-93536620D01*
X114765000Y-93536620D01*
X114859935Y-93527270D01*
X114951221Y-93499578D01*
X115035352Y-93454610D01*
X115109092Y-93394092D01*
X115169610Y-93320352D01*
X115214578Y-93236221D01*
X115242270Y-93144935D01*
X115250000Y-93066449D01*
X115257730Y-93144935D01*
X115285422Y-93236221D01*
X115330390Y-93320352D01*
X115390908Y-93394092D01*
X115464648Y-93454610D01*
X115548779Y-93499578D01*
X115640065Y-93527270D01*
X115735000Y-93536620D01*
X116035000Y-93536620D01*
X116129935Y-93527270D01*
X116197771Y-93506692D01*
X116164463Y-93540000D01*
X110745540Y-93540000D01*
X109303845Y-92098306D01*
X109359502Y-91994180D01*
X109395812Y-91874482D01*
X109408072Y-91750000D01*
X109405000Y-91735750D01*
X109246250Y-91577000D01*
X108172000Y-91577000D01*
X108172000Y-91597000D01*
X107918000Y-91597000D01*
X107918000Y-91577000D01*
X107898000Y-91577000D01*
X107898000Y-91323000D01*
X107918000Y-91323000D01*
X107918000Y-91303000D01*
X108172000Y-91303000D01*
X108172000Y-91323000D01*
X109246250Y-91323000D01*
X109405000Y-91164250D01*
X109408072Y-91150000D01*
X109395812Y-91025518D01*
X109359502Y-90905820D01*
X109300537Y-90795506D01*
X109221185Y-90698815D01*
X109124494Y-90619463D01*
X109014180Y-90560498D01*
X108894482Y-90524188D01*
X108770000Y-90511928D01*
X108505864Y-90513775D01*
X108519040Y-90380000D01*
X108502918Y-90216311D01*
X108455172Y-90058913D01*
X108377636Y-89913854D01*
X108273291Y-89786709D01*
X108146146Y-89682364D01*
X108001087Y-89604828D01*
X107843689Y-89557082D01*
X107721019Y-89545000D01*
X106538981Y-89545000D01*
X106416311Y-89557082D01*
X106258913Y-89604828D01*
X106113854Y-89682364D01*
X105986709Y-89786709D01*
X105882364Y-89913854D01*
X105804828Y-90058913D01*
X105757082Y-90216311D01*
X105740960Y-90380000D01*
X105757082Y-90543689D01*
X105804828Y-90701087D01*
X105882364Y-90846146D01*
X105986709Y-90973291D01*
X106113854Y-91077636D01*
X106258913Y-91155172D01*
X106372817Y-91189724D01*
X106287373Y-91225116D01*
X106179275Y-91297345D01*
X106087345Y-91389275D01*
X106015116Y-91497373D01*
X105965364Y-91617485D01*
X105940000Y-91744996D01*
X105940000Y-91875004D01*
X105965364Y-92002515D01*
X106015116Y-92122627D01*
X106087345Y-92230725D01*
X106179275Y-92322655D01*
X106287373Y-92394884D01*
X106407485Y-92444636D01*
X106434459Y-92450002D01*
X106017499Y-92866962D01*
X105460000Y-92309463D01*
X105460000Y-89190537D01*
X105876418Y-88774120D01*
X106256250Y-88774120D01*
X106364597Y-88763449D01*
X106468781Y-88731845D01*
X106564797Y-88680523D01*
X106648956Y-88611456D01*
X106718023Y-88527297D01*
X106769345Y-88431281D01*
X106800949Y-88327097D01*
X106811620Y-88218750D01*
X106811620Y-87781250D01*
X106800949Y-87672903D01*
X106769345Y-87568719D01*
X106718023Y-87472703D01*
X106648956Y-87388544D01*
X106564797Y-87319477D01*
X106468781Y-87268155D01*
X106364597Y-87236551D01*
X106256250Y-87225880D01*
X105743750Y-87225880D01*
X105635403Y-87236551D01*
X105531219Y-87268155D01*
X105435203Y-87319477D01*
X105351044Y-87388544D01*
X105281977Y-87472703D01*
X105230655Y-87568719D01*
X105199051Y-87672903D01*
X105188380Y-87781250D01*
X105188380Y-88161082D01*
X104690708Y-88658755D01*
X104673158Y-88673158D01*
X104615674Y-88743203D01*
X104572960Y-88823115D01*
X104546657Y-88909825D01*
X104540000Y-88977411D01*
X104540000Y-88977418D01*
X104537776Y-89000000D01*
X104540000Y-89022582D01*
X104540001Y-92477408D01*
X104537776Y-92500000D01*
X104546657Y-92590175D01*
X104572960Y-92676885D01*
X104590661Y-92710000D01*
X104615675Y-92756798D01*
X104673159Y-92826842D01*
X104690703Y-92841240D01*
X105371078Y-93521616D01*
X105365674Y-93528201D01*
X105322960Y-93608113D01*
X105296657Y-93694823D01*
X105290000Y-93762409D01*
X105290000Y-93762416D01*
X105287776Y-93784998D01*
X105290000Y-93807580D01*
X105290001Y-95592410D01*
X105287776Y-95615002D01*
X105296657Y-95705177D01*
X105322960Y-95791887D01*
X105322961Y-95791888D01*
X105365675Y-95871800D01*
X105372314Y-95879889D01*
X105397843Y-95910996D01*
X105423159Y-95941844D01*
X105440703Y-95956242D01*
X106434459Y-96949998D01*
X106407485Y-96955364D01*
X106287373Y-97005116D01*
X106179275Y-97077345D01*
X106087345Y-97169275D01*
X106015116Y-97277373D01*
X105965364Y-97397485D01*
X105940000Y-97524996D01*
X105940000Y-97655004D01*
X105965364Y-97782515D01*
X106015116Y-97902627D01*
X106087345Y-98010725D01*
X106179275Y-98102655D01*
X106287373Y-98174884D01*
X106372817Y-98210276D01*
X106258913Y-98244828D01*
X106113854Y-98322364D01*
X105986709Y-98426709D01*
X105882364Y-98553854D01*
X105804828Y-98698913D01*
X105757082Y-98856311D01*
X105740960Y-99020000D01*
X105757082Y-99183689D01*
X105804828Y-99341087D01*
X105882364Y-99486146D01*
X105986709Y-99613291D01*
X106113854Y-99717636D01*
X106258913Y-99795172D01*
X106416311Y-99842918D01*
X106538981Y-99855000D01*
X107721019Y-99855000D01*
X107843689Y-99842918D01*
X108001087Y-99795172D01*
X108146146Y-99717636D01*
X108273291Y-99613291D01*
X108377636Y-99486146D01*
X108455172Y-99341087D01*
X108502918Y-99183689D01*
X108519040Y-99020000D01*
X108505864Y-98886225D01*
X108770000Y-98888072D01*
X108894482Y-98875812D01*
X109014180Y-98839502D01*
X109124494Y-98780537D01*
X109221185Y-98701185D01*
X109300537Y-98604494D01*
X109359502Y-98494180D01*
X109395812Y-98374482D01*
X109408072Y-98250000D01*
X109405000Y-98235750D01*
X109246252Y-98077002D01*
X109296465Y-98077002D01*
X113009462Y-101790000D01*
X106978038Y-101790000D01*
X106811620Y-101623582D01*
X106811620Y-101243750D01*
X106800949Y-101135403D01*
X106769345Y-101031219D01*
X106718023Y-100935203D01*
X106648956Y-100851044D01*
X106564797Y-100781977D01*
X106468781Y-100730655D01*
X106364597Y-100699051D01*
X106256250Y-100688380D01*
X105743750Y-100688380D01*
X105635403Y-100699051D01*
X105531219Y-100730655D01*
X105435203Y-100781977D01*
X105351044Y-100851044D01*
X105281977Y-100935203D01*
X105230655Y-101031219D01*
X105199051Y-101135403D01*
X105188380Y-101243750D01*
X105188380Y-101681250D01*
X105199051Y-101789597D01*
X105230655Y-101893781D01*
X105281977Y-101989797D01*
X105351044Y-102073956D01*
X105435203Y-102143023D01*
X105531219Y-102194345D01*
X105635403Y-102225949D01*
X105743750Y-102236620D01*
X106123582Y-102236620D01*
X106150342Y-102263380D01*
X105743750Y-102263380D01*
X105635403Y-102274051D01*
X105531219Y-102305655D01*
X105435203Y-102356977D01*
X105351044Y-102426044D01*
X105281977Y-102510203D01*
X105246006Y-102577500D01*
X103503994Y-102577500D01*
X103468023Y-102510203D01*
X103398956Y-102426044D01*
X103314797Y-102356977D01*
X103218781Y-102305655D01*
X103114597Y-102274051D01*
X103006250Y-102263380D01*
X102493750Y-102263380D01*
X102385403Y-102274051D01*
X102281219Y-102305655D01*
X102185203Y-102356977D01*
X102101044Y-102426044D01*
X102031977Y-102510203D01*
X101980655Y-102606219D01*
X101949051Y-102710403D01*
X101938380Y-102818750D01*
X100360000Y-102818750D01*
X100360000Y-100927609D01*
X100515000Y-100927609D01*
X100515000Y-101072391D01*
X100543246Y-101214391D01*
X100598652Y-101348153D01*
X100679088Y-101468535D01*
X100781465Y-101570912D01*
X100901847Y-101651348D01*
X101035609Y-101706754D01*
X101177609Y-101735000D01*
X101322391Y-101735000D01*
X101332459Y-101732997D01*
X101371257Y-101771795D01*
X101385658Y-101789342D01*
X101455702Y-101846826D01*
X101535614Y-101889540D01*
X101622324Y-101915843D01*
X101689910Y-101922500D01*
X101689918Y-101922500D01*
X101712500Y-101924724D01*
X101735082Y-101922500D01*
X101996006Y-101922500D01*
X102031977Y-101989797D01*
X102101044Y-102073956D01*
X102185203Y-102143023D01*
X102281219Y-102194345D01*
X102385403Y-102225949D01*
X102493750Y-102236620D01*
X103006250Y-102236620D01*
X103114597Y-102225949D01*
X103218781Y-102194345D01*
X103314797Y-102143023D01*
X103398956Y-102073956D01*
X103468023Y-101989797D01*
X103519345Y-101893781D01*
X103550949Y-101789597D01*
X103561620Y-101681250D01*
X103561620Y-101243750D01*
X103550949Y-101135403D01*
X103519345Y-101031219D01*
X103468023Y-100935203D01*
X103398956Y-100851044D01*
X103314797Y-100781977D01*
X103218781Y-100730655D01*
X103114597Y-100699051D01*
X103006250Y-100688380D01*
X102493750Y-100688380D01*
X102385403Y-100699051D01*
X102281219Y-100730655D01*
X102185203Y-100781977D01*
X102101044Y-100851044D01*
X102031977Y-100935203D01*
X101996006Y-101002500D01*
X101985000Y-101002500D01*
X101985000Y-100927609D01*
X101956754Y-100785609D01*
X101901348Y-100651847D01*
X101820912Y-100531465D01*
X101718535Y-100429088D01*
X101598153Y-100348652D01*
X101464391Y-100293246D01*
X101322391Y-100265000D01*
X101177609Y-100265000D01*
X101035609Y-100293246D01*
X100901847Y-100348652D01*
X100781465Y-100429088D01*
X100679088Y-100531465D01*
X100598652Y-100651847D01*
X100543246Y-100785609D01*
X100515000Y-100927609D01*
X100360000Y-100927609D01*
X100360000Y-99020000D01*
X101810960Y-99020000D01*
X101827082Y-99183689D01*
X101874828Y-99341087D01*
X101952364Y-99486146D01*
X102056709Y-99613291D01*
X102183854Y-99717636D01*
X102328913Y-99795172D01*
X102486311Y-99842918D01*
X102608981Y-99855000D01*
X103291019Y-99855000D01*
X103413689Y-99842918D01*
X103571087Y-99795172D01*
X103716146Y-99717636D01*
X103843291Y-99613291D01*
X103947636Y-99486146D01*
X104025172Y-99341087D01*
X104072918Y-99183689D01*
X104089040Y-99020000D01*
X104072918Y-98856311D01*
X104025172Y-98698913D01*
X103947636Y-98553854D01*
X103843291Y-98426709D01*
X103716146Y-98322364D01*
X103571087Y-98244828D01*
X103413689Y-98197082D01*
X103291019Y-98185000D01*
X102608981Y-98185000D01*
X102486311Y-98197082D01*
X102328913Y-98244828D01*
X102183854Y-98322364D01*
X102056709Y-98426709D01*
X101952364Y-98553854D01*
X101874828Y-98698913D01*
X101827082Y-98856311D01*
X101810960Y-99020000D01*
X100360000Y-99020000D01*
X100360000Y-90380000D01*
X101810960Y-90380000D01*
X101827082Y-90543689D01*
X101874828Y-90701087D01*
X101952364Y-90846146D01*
X102056709Y-90973291D01*
X102183854Y-91077636D01*
X102328913Y-91155172D01*
X102486311Y-91202918D01*
X102608981Y-91215000D01*
X103291019Y-91215000D01*
X103413689Y-91202918D01*
X103571087Y-91155172D01*
X103716146Y-91077636D01*
X103843291Y-90973291D01*
X103947636Y-90846146D01*
X104025172Y-90701087D01*
X104072918Y-90543689D01*
X104089040Y-90380000D01*
X104072918Y-90216311D01*
X104025172Y-90058913D01*
X103947636Y-89913854D01*
X103843291Y-89786709D01*
X103716146Y-89682364D01*
X103571087Y-89604828D01*
X103413689Y-89557082D01*
X103291019Y-89545000D01*
X102608981Y-89545000D01*
X102486311Y-89557082D01*
X102328913Y-89604828D01*
X102183854Y-89682364D01*
X102056709Y-89786709D01*
X101952364Y-89913854D01*
X101874828Y-90058913D01*
X101827082Y-90216311D01*
X101810960Y-90380000D01*
X100360000Y-90380000D01*
X100360000Y-88677609D01*
X100515000Y-88677609D01*
X100515000Y-88822391D01*
X100543246Y-88964391D01*
X100598652Y-89098153D01*
X100679088Y-89218535D01*
X100781465Y-89320912D01*
X100901847Y-89401348D01*
X101035609Y-89456754D01*
X101177609Y-89485000D01*
X101322391Y-89485000D01*
X101464391Y-89456754D01*
X101598153Y-89401348D01*
X101718535Y-89320912D01*
X101820912Y-89218535D01*
X101901348Y-89098153D01*
X101956754Y-88964391D01*
X101985000Y-88822391D01*
X101985000Y-88677609D01*
X101982997Y-88667540D01*
X102056211Y-88594327D01*
X102101044Y-88648956D01*
X102185203Y-88718023D01*
X102281219Y-88769345D01*
X102385403Y-88800949D01*
X102493750Y-88811620D01*
X103006250Y-88811620D01*
X103114597Y-88800949D01*
X103218781Y-88769345D01*
X103314797Y-88718023D01*
X103398956Y-88648956D01*
X103468023Y-88564797D01*
X103519345Y-88468781D01*
X103550949Y-88364597D01*
X103561620Y-88256250D01*
X103561620Y-87818750D01*
X103550949Y-87710403D01*
X103519345Y-87606219D01*
X103468023Y-87510203D01*
X103398956Y-87426044D01*
X103314797Y-87356977D01*
X103218781Y-87305655D01*
X103114597Y-87274051D01*
X103006250Y-87263380D01*
X102493750Y-87263380D01*
X102385403Y-87274051D01*
X102281219Y-87305655D01*
X102185203Y-87356977D01*
X102101044Y-87426044D01*
X102031977Y-87510203D01*
X101996006Y-87577500D01*
X101985081Y-87577500D01*
X101962499Y-87575276D01*
X101939917Y-87577500D01*
X101939910Y-87577500D01*
X101880854Y-87583317D01*
X101872323Y-87584157D01*
X101799595Y-87606219D01*
X101785614Y-87610460D01*
X101705702Y-87653174D01*
X101635658Y-87710658D01*
X101621259Y-87728203D01*
X101332460Y-88017003D01*
X101322391Y-88015000D01*
X101177609Y-88015000D01*
X101035609Y-88043246D01*
X100901847Y-88098652D01*
X100781465Y-88179088D01*
X100679088Y-88281465D01*
X100598652Y-88401847D01*
X100543246Y-88535609D01*
X100515000Y-88677609D01*
X100360000Y-88677609D01*
X100360000Y-86243750D01*
X101938380Y-86243750D01*
X101938380Y-86681250D01*
X101949051Y-86789597D01*
X101980655Y-86893781D01*
X102031977Y-86989797D01*
X102101044Y-87073956D01*
X102185203Y-87143023D01*
X102281219Y-87194345D01*
X102385403Y-87225949D01*
X102493750Y-87236620D01*
X103006250Y-87236620D01*
X103114597Y-87225949D01*
X103218781Y-87194345D01*
X103314797Y-87143023D01*
X103398956Y-87073956D01*
X103468023Y-86989797D01*
X103519345Y-86893781D01*
X103522009Y-86885000D01*
X105246006Y-86885000D01*
X105281977Y-86952297D01*
X105351044Y-87036456D01*
X105435203Y-87105523D01*
X105531219Y-87156845D01*
X105635403Y-87188449D01*
X105743750Y-87199120D01*
X106256250Y-87199120D01*
X106364597Y-87188449D01*
X106468781Y-87156845D01*
X106564797Y-87105523D01*
X106648956Y-87036456D01*
X106718023Y-86952297D01*
X106769345Y-86856281D01*
X106794001Y-86775000D01*
X113386928Y-86775000D01*
X113390000Y-86964250D01*
X113548750Y-87123000D01*
X114335500Y-87123000D01*
X114335500Y-86298750D01*
X114176750Y-86140000D01*
X114025000Y-86136928D01*
X113900518Y-86149188D01*
X113780820Y-86185498D01*
X113670506Y-86244463D01*
X113573815Y-86323815D01*
X113494463Y-86420506D01*
X113435498Y-86530820D01*
X113399188Y-86650518D01*
X113386928Y-86775000D01*
X106794001Y-86775000D01*
X106800949Y-86752097D01*
X106811620Y-86643750D01*
X106811620Y-86206250D01*
X106800949Y-86097903D01*
X106769345Y-85993719D01*
X106718023Y-85897703D01*
X106648956Y-85813544D01*
X106564797Y-85744477D01*
X106468781Y-85693155D01*
X106364597Y-85661551D01*
X106256250Y-85650880D01*
X105743750Y-85650880D01*
X105635403Y-85661551D01*
X105531219Y-85693155D01*
X105435203Y-85744477D01*
X105351044Y-85813544D01*
X105281977Y-85897703D01*
X105246006Y-85965000D01*
X103483950Y-85965000D01*
X103468023Y-85935203D01*
X103398956Y-85851044D01*
X103314797Y-85781977D01*
X103218781Y-85730655D01*
X103114597Y-85699051D01*
X103006250Y-85688380D01*
X102493750Y-85688380D01*
X102385403Y-85699051D01*
X102281219Y-85730655D01*
X102185203Y-85781977D01*
X102101044Y-85851044D01*
X102031977Y-85935203D01*
X101980655Y-86031219D01*
X101949051Y-86135403D01*
X101938380Y-86243750D01*
X100360000Y-86243750D01*
X100360000Y-85360000D01*
X129640000Y-85360000D01*
X129640001Y-104640000D01*
G37*
X129640001Y-104640000D02*
X100360000Y-104640000D01*
X100360000Y-102818750D01*
X101938380Y-102818750D01*
X101938380Y-103256250D01*
X101949051Y-103364597D01*
X101980655Y-103468781D01*
X102031977Y-103564797D01*
X102101044Y-103648956D01*
X102185203Y-103718023D01*
X102281219Y-103769345D01*
X102385403Y-103800949D01*
X102493750Y-103811620D01*
X103006250Y-103811620D01*
X103114597Y-103800949D01*
X103218781Y-103769345D01*
X103314797Y-103718023D01*
X103398956Y-103648956D01*
X103468023Y-103564797D01*
X103503994Y-103497500D01*
X105246006Y-103497500D01*
X105281977Y-103564797D01*
X105351044Y-103648956D01*
X105435203Y-103718023D01*
X105531219Y-103769345D01*
X105635403Y-103800949D01*
X105743750Y-103811620D01*
X106256250Y-103811620D01*
X106364597Y-103800949D01*
X106468781Y-103769345D01*
X106564797Y-103718023D01*
X106648956Y-103648956D01*
X106718023Y-103564797D01*
X106769345Y-103468781D01*
X106800949Y-103364597D01*
X106811620Y-103256250D01*
X106811620Y-102818750D01*
X106800997Y-102710895D01*
X106810081Y-102710000D01*
X113727991Y-102710000D01*
X113730655Y-102718781D01*
X113781977Y-102814797D01*
X113851044Y-102898956D01*
X113935203Y-102968023D01*
X114031219Y-103019345D01*
X114135403Y-103050949D01*
X114243750Y-103061620D01*
X114681250Y-103061620D01*
X114789597Y-103050949D01*
X114893781Y-103019345D01*
X114989797Y-102968023D01*
X115006091Y-102954651D01*
X115010498Y-102969180D01*
X115069463Y-103079494D01*
X115148815Y-103176185D01*
X115245506Y-103255537D01*
X115355820Y-103314502D01*
X115475518Y-103350812D01*
X115600000Y-103363072D01*
X115751750Y-103360000D01*
X115910500Y-103201250D01*
X115910500Y-102377000D01*
X116164500Y-102377000D01*
X116164500Y-103201250D01*
X116323250Y-103360000D01*
X116475000Y-103363072D01*
X116599482Y-103350812D01*
X116719180Y-103314502D01*
X116829494Y-103255537D01*
X116926185Y-103176185D01*
X117005537Y-103079494D01*
X117064502Y-102969180D01*
X117100812Y-102849482D01*
X117113072Y-102725000D01*
X117110000Y-102535750D01*
X116951250Y-102377000D01*
X116164500Y-102377000D01*
X115910500Y-102377000D01*
X115890500Y-102377000D01*
X115890500Y-102123000D01*
X115910500Y-102123000D01*
X115910500Y-101298750D01*
X116164500Y-101298750D01*
X116164500Y-102123000D01*
X116951250Y-102123000D01*
X117110000Y-101964250D01*
X117113072Y-101775000D01*
X117100812Y-101650518D01*
X117064502Y-101530820D01*
X117005537Y-101420506D01*
X116926185Y-101323815D01*
X116829494Y-101244463D01*
X116719180Y-101185498D01*
X116599482Y-101149188D01*
X116475000Y-101136928D01*
X116323250Y-101140000D01*
X116164500Y-101298750D01*
X115910500Y-101298750D01*
X115751750Y-101140000D01*
X115600000Y-101136928D01*
X115475518Y-101149188D01*
X115355820Y-101185498D01*
X115245506Y-101244463D01*
X115148815Y-101323815D01*
X115069463Y-101420506D01*
X115010498Y-101530820D01*
X115006091Y-101545349D01*
X114989797Y-101531977D01*
X114893781Y-101480655D01*
X114789597Y-101449051D01*
X114681250Y-101438380D01*
X114243750Y-101438380D01*
X114135403Y-101449051D01*
X114031219Y-101480655D01*
X114011652Y-101491114D01*
X109361245Y-96840708D01*
X109346842Y-96823158D01*
X109276798Y-96765674D01*
X109196886Y-96722960D01*
X109110176Y-96696657D01*
X109091316Y-96694799D01*
X109100152Y-96665671D01*
X109106620Y-96600000D01*
X109106620Y-96300000D01*
X109100152Y-96234329D01*
X109089738Y-96200000D01*
X109100152Y-96165671D01*
X109106620Y-96100000D01*
X109106620Y-95910000D01*
X110979463Y-95910000D01*
X112708380Y-97638918D01*
X112708380Y-98300000D01*
X112717730Y-98394935D01*
X112745422Y-98486221D01*
X112790390Y-98570352D01*
X112850908Y-98644092D01*
X112924648Y-98704610D01*
X113008779Y-98749578D01*
X113100065Y-98777270D01*
X113195000Y-98786620D01*
X113495000Y-98786620D01*
X113589935Y-98777270D01*
X113681221Y-98749578D01*
X113765352Y-98704610D01*
X113839092Y-98644092D01*
X113899610Y-98570352D01*
X113944578Y-98486221D01*
X113972270Y-98394935D01*
X113980000Y-98316449D01*
X113987730Y-98394935D01*
X114015422Y-98486221D01*
X114060390Y-98570352D01*
X114120908Y-98644092D01*
X114194648Y-98704610D01*
X114278779Y-98749578D01*
X114370065Y-98777270D01*
X114465000Y-98786620D01*
X114765000Y-98786620D01*
X114859935Y-98777270D01*
X114951221Y-98749578D01*
X115008690Y-98718861D01*
X115054463Y-98804494D01*
X115133815Y-98901185D01*
X115230506Y-98980537D01*
X115340820Y-99039502D01*
X115460518Y-99075812D01*
X115585000Y-99088072D01*
X115599250Y-99085000D01*
X115758000Y-98926250D01*
X115758000Y-97752000D01*
X115738000Y-97752000D01*
X115738000Y-97498000D01*
X115758000Y-97498000D01*
X115758000Y-96323750D01*
X116012000Y-96323750D01*
X116012000Y-97498000D01*
X116032000Y-97498000D01*
X116032000Y-97752000D01*
X116012000Y-97752000D01*
X116012000Y-98926250D01*
X116170750Y-99085000D01*
X116185000Y-99088072D01*
X116309482Y-99075812D01*
X116429180Y-99039502D01*
X116539494Y-98980537D01*
X116636185Y-98901185D01*
X116715537Y-98804494D01*
X116761310Y-98718861D01*
X116818779Y-98749578D01*
X116910065Y-98777270D01*
X117005000Y-98786620D01*
X117305000Y-98786620D01*
X117399935Y-98777270D01*
X117491221Y-98749578D01*
X117575352Y-98704610D01*
X117649092Y-98644092D01*
X117709610Y-98570352D01*
X117754578Y-98486221D01*
X117782270Y-98394935D01*
X117791620Y-98300000D01*
X117791620Y-98085000D01*
X124814463Y-98085000D01*
X126402502Y-99673040D01*
X126360539Y-99774348D01*
X126315000Y-100003288D01*
X126315000Y-100236712D01*
X126360539Y-100465652D01*
X126449866Y-100681308D01*
X126579550Y-100875394D01*
X126744606Y-101040450D01*
X126938692Y-101170134D01*
X127154348Y-101259461D01*
X127383288Y-101305000D01*
X127616712Y-101305000D01*
X127845652Y-101259461D01*
X128061308Y-101170134D01*
X128255394Y-101040450D01*
X128420450Y-100875394D01*
X128550134Y-100681308D01*
X128639461Y-100465652D01*
X128685000Y-100236712D01*
X128685000Y-100003288D01*
X128639461Y-99774348D01*
X128550134Y-99558692D01*
X128420450Y-99364606D01*
X128255394Y-99199550D01*
X128061308Y-99069866D01*
X127845652Y-98980539D01*
X127616712Y-98935000D01*
X127383288Y-98935000D01*
X127154348Y-98980539D01*
X127053040Y-99022502D01*
X125493826Y-97463288D01*
X126315000Y-97463288D01*
X126315000Y-97696712D01*
X126360539Y-97925652D01*
X126449866Y-98141308D01*
X126579550Y-98335394D01*
X126744606Y-98500450D01*
X126938692Y-98630134D01*
X127154348Y-98719461D01*
X127383288Y-98765000D01*
X127616712Y-98765000D01*
X127845652Y-98719461D01*
X128061308Y-98630134D01*
X128255394Y-98500450D01*
X128420450Y-98335394D01*
X128550134Y-98141308D01*
X128639461Y-97925652D01*
X128685000Y-97696712D01*
X128685000Y-97463288D01*
X128639461Y-97234348D01*
X128550134Y-97018692D01*
X128420450Y-96824606D01*
X128255394Y-96659550D01*
X128061308Y-96529866D01*
X127845652Y-96440539D01*
X127616712Y-96395000D01*
X127383288Y-96395000D01*
X127154348Y-96440539D01*
X126938692Y-96529866D01*
X126744606Y-96659550D01*
X126579550Y-96824606D01*
X126449866Y-97018692D01*
X126360539Y-97234348D01*
X126315000Y-97463288D01*
X125493826Y-97463288D01*
X125346245Y-97315708D01*
X125331842Y-97298158D01*
X125261798Y-97240674D01*
X125181886Y-97197960D01*
X125095176Y-97171657D01*
X125027590Y-97165000D01*
X125027582Y-97165000D01*
X125005000Y-97162776D01*
X124982418Y-97165000D01*
X117791620Y-97165000D01*
X117791620Y-96950000D01*
X117782270Y-96855065D01*
X117754578Y-96763779D01*
X117709610Y-96679648D01*
X117649092Y-96605908D01*
X117575352Y-96545390D01*
X117491221Y-96500422D01*
X117399935Y-96472730D01*
X117305000Y-96463380D01*
X117005000Y-96463380D01*
X116910065Y-96472730D01*
X116818779Y-96500422D01*
X116761310Y-96531139D01*
X116715537Y-96445506D01*
X116636185Y-96348815D01*
X116539494Y-96269463D01*
X116429180Y-96210498D01*
X116309482Y-96174188D01*
X116185000Y-96161928D01*
X116170750Y-96165000D01*
X116012000Y-96323750D01*
X115758000Y-96323750D01*
X115599250Y-96165000D01*
X115585000Y-96161928D01*
X115460518Y-96174188D01*
X115340820Y-96210498D01*
X115230506Y-96269463D01*
X115133815Y-96348815D01*
X115054463Y-96445506D01*
X115008690Y-96531139D01*
X114974373Y-96512797D01*
X114941842Y-96473158D01*
X114924299Y-96458761D01*
X113106245Y-94640708D01*
X113091842Y-94623158D01*
X113021798Y-94565674D01*
X112941886Y-94522960D01*
X112855176Y-94496657D01*
X112787590Y-94490000D01*
X112787582Y-94490000D01*
X112765000Y-94487776D01*
X112742418Y-94490000D01*
X109710000Y-94490000D01*
X109710000Y-94202581D01*
X109712224Y-94179999D01*
X109710000Y-94157417D01*
X109710000Y-94157410D01*
X109703343Y-94089824D01*
X109677040Y-94003114D01*
X109634326Y-93923202D01*
X109576842Y-93853158D01*
X109559293Y-93838756D01*
X109361245Y-93640708D01*
X109346842Y-93623158D01*
X109276798Y-93565674D01*
X109196886Y-93522960D01*
X109110176Y-93496657D01*
X109106620Y-93496307D01*
X109106620Y-93300000D01*
X109100152Y-93234329D01*
X109089738Y-93200000D01*
X109093166Y-93188701D01*
X110213761Y-94309297D01*
X110228160Y-94326842D01*
X110245704Y-94341240D01*
X110245706Y-94341242D01*
X110289326Y-94377040D01*
X110298204Y-94384326D01*
X110378116Y-94427040D01*
X110464826Y-94453343D01*
X110532412Y-94460000D01*
X110532420Y-94460000D01*
X110555002Y-94462224D01*
X110577584Y-94460000D01*
X116332418Y-94460000D01*
X116355000Y-94462224D01*
X116377582Y-94460000D01*
X116377590Y-94460000D01*
X116445176Y-94453343D01*
X116531886Y-94427040D01*
X116611798Y-94384326D01*
X116681842Y-94326842D01*
X116696245Y-94309292D01*
X117464297Y-93541241D01*
X117481842Y-93526842D01*
X117506615Y-93496657D01*
X117514373Y-93487203D01*
X117575352Y-93454610D01*
X117649092Y-93394092D01*
X117709610Y-93320352D01*
X117754578Y-93236221D01*
X117782270Y-93144935D01*
X117791620Y-93050000D01*
X117791620Y-92856890D01*
X126058524Y-92856890D01*
X126103175Y-93004099D01*
X126228359Y-93266920D01*
X126402412Y-93500269D01*
X126618645Y-93695178D01*
X126868748Y-93844157D01*
X127095918Y-93924741D01*
X126938692Y-93989866D01*
X126744606Y-94119550D01*
X126579550Y-94284606D01*
X126449866Y-94478692D01*
X126360539Y-94694348D01*
X126315000Y-94923288D01*
X126315000Y-95156712D01*
X126360539Y-95385652D01*
X126449866Y-95601308D01*
X126579550Y-95795394D01*
X126744606Y-95960450D01*
X126938692Y-96090134D01*
X127154348Y-96179461D01*
X127383288Y-96225000D01*
X127616712Y-96225000D01*
X127845652Y-96179461D01*
X128061308Y-96090134D01*
X128255394Y-95960450D01*
X128420450Y-95795394D01*
X128550134Y-95601308D01*
X128639461Y-95385652D01*
X128685000Y-95156712D01*
X128685000Y-94923288D01*
X128639461Y-94694348D01*
X128550134Y-94478692D01*
X128420450Y-94284606D01*
X128255394Y-94119550D01*
X128061308Y-93989866D01*
X127904082Y-93924741D01*
X128131252Y-93844157D01*
X128381355Y-93695178D01*
X128597588Y-93500269D01*
X128771641Y-93266920D01*
X128896825Y-93004099D01*
X128941476Y-92856890D01*
X128820155Y-92627000D01*
X127627000Y-92627000D01*
X127627000Y-92647000D01*
X127373000Y-92647000D01*
X127373000Y-92627000D01*
X126179845Y-92627000D01*
X126058524Y-92856890D01*
X117791620Y-92856890D01*
X117791620Y-92388917D01*
X119760538Y-90420000D01*
X126313380Y-90420000D01*
X126313380Y-90810000D01*
X126319848Y-90875671D01*
X126339004Y-90938819D01*
X126370111Y-90997016D01*
X126411974Y-91048026D01*
X126462984Y-91089889D01*
X126521181Y-91120996D01*
X126584329Y-91140152D01*
X126650000Y-91146620D01*
X126894748Y-91146620D01*
X126868748Y-91155843D01*
X126618645Y-91304822D01*
X126402412Y-91499731D01*
X126228359Y-91733080D01*
X126103175Y-91995901D01*
X126058524Y-92143110D01*
X126179845Y-92373000D01*
X127373000Y-92373000D01*
X127373000Y-92353000D01*
X127627000Y-92353000D01*
X127627000Y-92373000D01*
X128820155Y-92373000D01*
X128941476Y-92143110D01*
X128896825Y-91995901D01*
X128771641Y-91733080D01*
X128597588Y-91499731D01*
X128381355Y-91304822D01*
X128131252Y-91155843D01*
X128105252Y-91146620D01*
X128350000Y-91146620D01*
X128415671Y-91140152D01*
X128478819Y-91120996D01*
X128537016Y-91089889D01*
X128588026Y-91048026D01*
X128629889Y-90997016D01*
X128660996Y-90938819D01*
X128680152Y-90875671D01*
X128686620Y-90810000D01*
X128686620Y-89110000D01*
X128680152Y-89044329D01*
X128660996Y-88981181D01*
X128629889Y-88922984D01*
X128588026Y-88871974D01*
X128537016Y-88830111D01*
X128478819Y-88799004D01*
X128415671Y-88779848D01*
X128350000Y-88773380D01*
X126650000Y-88773380D01*
X126584329Y-88779848D01*
X126521181Y-88799004D01*
X126462984Y-88830111D01*
X126411974Y-88871974D01*
X126370111Y-88922984D01*
X126339004Y-88981181D01*
X126319848Y-89044329D01*
X126313380Y-89110000D01*
X126313380Y-89500000D01*
X119592582Y-89500000D01*
X119570000Y-89497776D01*
X119547418Y-89500000D01*
X119547410Y-89500000D01*
X119479824Y-89506657D01*
X119393114Y-89532960D01*
X119313202Y-89575674D01*
X119264482Y-89615658D01*
X119243158Y-89633158D01*
X119228759Y-89650703D01*
X117580142Y-91299321D01*
X117575352Y-91295390D01*
X117491221Y-91250422D01*
X117399935Y-91222730D01*
X117305000Y-91213380D01*
X117005000Y-91213380D01*
X116910065Y-91222730D01*
X116818779Y-91250422D01*
X116734648Y-91295390D01*
X116660908Y-91355908D01*
X116600390Y-91429648D01*
X116555422Y-91513779D01*
X116527730Y-91605065D01*
X116520000Y-91683551D01*
X116512270Y-91605065D01*
X116484578Y-91513779D01*
X116460000Y-91467796D01*
X116460000Y-90826615D01*
X116468535Y-90820912D01*
X116570912Y-90718535D01*
X116651348Y-90598153D01*
X116706754Y-90464391D01*
X116735000Y-90322391D01*
X116735000Y-90177609D01*
X116706754Y-90035609D01*
X116651348Y-89901847D01*
X116570912Y-89781465D01*
X116468535Y-89679088D01*
X116348153Y-89598652D01*
X116214391Y-89543246D01*
X116072391Y-89515000D01*
X115927609Y-89515000D01*
X115785609Y-89543246D01*
X115651847Y-89598652D01*
X115531465Y-89679088D01*
X115429088Y-89781465D01*
X115375000Y-89862414D01*
X115320912Y-89781465D01*
X115218535Y-89679088D01*
X115098153Y-89598652D01*
X114964391Y-89543246D01*
X114822391Y-89515000D01*
X114677609Y-89515000D01*
X114535609Y-89543246D01*
X114401847Y-89598652D01*
X114281465Y-89679088D01*
X114179088Y-89781465D01*
X114098652Y-89901847D01*
X114043246Y-90035609D01*
X114015000Y-90177609D01*
X114015000Y-90322391D01*
X114043246Y-90464391D01*
X114098652Y-90598153D01*
X114179088Y-90718535D01*
X114281465Y-90820912D01*
X114290000Y-90826615D01*
X114290001Y-91247018D01*
X114278779Y-91250422D01*
X114194648Y-91295390D01*
X114120908Y-91355908D01*
X114060390Y-91429648D01*
X114015422Y-91513779D01*
X113987730Y-91605065D01*
X113980000Y-91683551D01*
X113972270Y-91605065D01*
X113944578Y-91513779D01*
X113899610Y-91429648D01*
X113839092Y-91355908D01*
X113805000Y-91327929D01*
X113805000Y-90133037D01*
X115876418Y-88061620D01*
X116256250Y-88061620D01*
X116364597Y-88050949D01*
X116468781Y-88019345D01*
X116564797Y-87968023D01*
X116648956Y-87898956D01*
X116718023Y-87814797D01*
X116769345Y-87718781D01*
X116800949Y-87614597D01*
X116811620Y-87506250D01*
X116811620Y-86993750D01*
X116800949Y-86885403D01*
X116769345Y-86781219D01*
X116718023Y-86685203D01*
X116648956Y-86601044D01*
X116564797Y-86531977D01*
X116468781Y-86480655D01*
X116364597Y-86449051D01*
X116256250Y-86438380D01*
X115818750Y-86438380D01*
X115710403Y-86449051D01*
X115606219Y-86480655D01*
X115510203Y-86531977D01*
X115493909Y-86545349D01*
X115489502Y-86530820D01*
X115430537Y-86420506D01*
X115351185Y-86323815D01*
X115254494Y-86244463D01*
X115144180Y-86185498D01*
X115024482Y-86149188D01*
X114900000Y-86136928D01*
X114748250Y-86140000D01*
X114589500Y-86298750D01*
X114589500Y-87123000D01*
X114609500Y-87123000D01*
X114609500Y-87377000D01*
X114589500Y-87377000D01*
X114589500Y-87397000D01*
X114335500Y-87397000D01*
X114335500Y-87377000D01*
X113548750Y-87377000D01*
X113390000Y-87535750D01*
X113386928Y-87725000D01*
X113399188Y-87849482D01*
X113435498Y-87969180D01*
X113494463Y-88079494D01*
X113573815Y-88176185D01*
X113670506Y-88255537D01*
X113780820Y-88314502D01*
X113900518Y-88350812D01*
X114025000Y-88363072D01*
X114176750Y-88360000D01*
X114335498Y-88201252D01*
X114335498Y-88301464D01*
X113035708Y-89601255D01*
X113018158Y-89615658D01*
X112960674Y-89685703D01*
X112917960Y-89765615D01*
X112891657Y-89852325D01*
X112885000Y-89919911D01*
X112885000Y-89919918D01*
X112882776Y-89942500D01*
X112885000Y-89965082D01*
X112885001Y-91327928D01*
X112850908Y-91355908D01*
X112790390Y-91429648D01*
X112745422Y-91513779D01*
X112717730Y-91605065D01*
X112708380Y-91700000D01*
X112708380Y-93050000D01*
X112717730Y-93144935D01*
X112745422Y-93236221D01*
X112790390Y-93320352D01*
X112850908Y-93394092D01*
X112924648Y-93454610D01*
X113008779Y-93499578D01*
X113100065Y-93527270D01*
X113195000Y-93536620D01*
X113495000Y-93536620D01*
X113589935Y-93527270D01*
X113681221Y-93499578D01*
X113765352Y-93454610D01*
X113839092Y-93394092D01*
X113899610Y-93320352D01*
X113944578Y-93236221D01*
X113972270Y-93144935D01*
X113980000Y-93066449D01*
X113987730Y-93144935D01*
X114015422Y-93236221D01*
X114060390Y-93320352D01*
X114120908Y-93394092D01*
X114194648Y-93454610D01*
X114278779Y-93499578D01*
X114370065Y-93527270D01*
X114465000Y-93536620D01*
X114765000Y-93536620D01*
X114859935Y-93527270D01*
X114951221Y-93499578D01*
X115035352Y-93454610D01*
X115109092Y-93394092D01*
X115169610Y-93320352D01*
X115214578Y-93236221D01*
X115242270Y-93144935D01*
X115250000Y-93066449D01*
X115257730Y-93144935D01*
X115285422Y-93236221D01*
X115330390Y-93320352D01*
X115390908Y-93394092D01*
X115464648Y-93454610D01*
X115548779Y-93499578D01*
X115640065Y-93527270D01*
X115735000Y-93536620D01*
X116035000Y-93536620D01*
X116129935Y-93527270D01*
X116197771Y-93506692D01*
X116164463Y-93540000D01*
X110745540Y-93540000D01*
X109303845Y-92098306D01*
X109359502Y-91994180D01*
X109395812Y-91874482D01*
X109408072Y-91750000D01*
X109405000Y-91735750D01*
X109246250Y-91577000D01*
X108172000Y-91577000D01*
X108172000Y-91597000D01*
X107918000Y-91597000D01*
X107918000Y-91577000D01*
X107898000Y-91577000D01*
X107898000Y-91323000D01*
X107918000Y-91323000D01*
X107918000Y-91303000D01*
X108172000Y-91303000D01*
X108172000Y-91323000D01*
X109246250Y-91323000D01*
X109405000Y-91164250D01*
X109408072Y-91150000D01*
X109395812Y-91025518D01*
X109359502Y-90905820D01*
X109300537Y-90795506D01*
X109221185Y-90698815D01*
X109124494Y-90619463D01*
X109014180Y-90560498D01*
X108894482Y-90524188D01*
X108770000Y-90511928D01*
X108505864Y-90513775D01*
X108519040Y-90380000D01*
X108502918Y-90216311D01*
X108455172Y-90058913D01*
X108377636Y-89913854D01*
X108273291Y-89786709D01*
X108146146Y-89682364D01*
X108001087Y-89604828D01*
X107843689Y-89557082D01*
X107721019Y-89545000D01*
X106538981Y-89545000D01*
X106416311Y-89557082D01*
X106258913Y-89604828D01*
X106113854Y-89682364D01*
X105986709Y-89786709D01*
X105882364Y-89913854D01*
X105804828Y-90058913D01*
X105757082Y-90216311D01*
X105740960Y-90380000D01*
X105757082Y-90543689D01*
X105804828Y-90701087D01*
X105882364Y-90846146D01*
X105986709Y-90973291D01*
X106113854Y-91077636D01*
X106258913Y-91155172D01*
X106372817Y-91189724D01*
X106287373Y-91225116D01*
X106179275Y-91297345D01*
X106087345Y-91389275D01*
X106015116Y-91497373D01*
X105965364Y-91617485D01*
X105940000Y-91744996D01*
X105940000Y-91875004D01*
X105965364Y-92002515D01*
X106015116Y-92122627D01*
X106087345Y-92230725D01*
X106179275Y-92322655D01*
X106287373Y-92394884D01*
X106407485Y-92444636D01*
X106434459Y-92450002D01*
X106017499Y-92866962D01*
X105460000Y-92309463D01*
X105460000Y-89190537D01*
X105876418Y-88774120D01*
X106256250Y-88774120D01*
X106364597Y-88763449D01*
X106468781Y-88731845D01*
X106564797Y-88680523D01*
X106648956Y-88611456D01*
X106718023Y-88527297D01*
X106769345Y-88431281D01*
X106800949Y-88327097D01*
X106811620Y-88218750D01*
X106811620Y-87781250D01*
X106800949Y-87672903D01*
X106769345Y-87568719D01*
X106718023Y-87472703D01*
X106648956Y-87388544D01*
X106564797Y-87319477D01*
X106468781Y-87268155D01*
X106364597Y-87236551D01*
X106256250Y-87225880D01*
X105743750Y-87225880D01*
X105635403Y-87236551D01*
X105531219Y-87268155D01*
X105435203Y-87319477D01*
X105351044Y-87388544D01*
X105281977Y-87472703D01*
X105230655Y-87568719D01*
X105199051Y-87672903D01*
X105188380Y-87781250D01*
X105188380Y-88161082D01*
X104690708Y-88658755D01*
X104673158Y-88673158D01*
X104615674Y-88743203D01*
X104572960Y-88823115D01*
X104546657Y-88909825D01*
X104540000Y-88977411D01*
X104540000Y-88977418D01*
X104537776Y-89000000D01*
X104540000Y-89022582D01*
X104540001Y-92477408D01*
X104537776Y-92500000D01*
X104546657Y-92590175D01*
X104572960Y-92676885D01*
X104590661Y-92710000D01*
X104615675Y-92756798D01*
X104673159Y-92826842D01*
X104690703Y-92841240D01*
X105371078Y-93521616D01*
X105365674Y-93528201D01*
X105322960Y-93608113D01*
X105296657Y-93694823D01*
X105290000Y-93762409D01*
X105290000Y-93762416D01*
X105287776Y-93784998D01*
X105290000Y-93807580D01*
X105290001Y-95592410D01*
X105287776Y-95615002D01*
X105296657Y-95705177D01*
X105322960Y-95791887D01*
X105322961Y-95791888D01*
X105365675Y-95871800D01*
X105372314Y-95879889D01*
X105397843Y-95910996D01*
X105423159Y-95941844D01*
X105440703Y-95956242D01*
X106434459Y-96949998D01*
X106407485Y-96955364D01*
X106287373Y-97005116D01*
X106179275Y-97077345D01*
X106087345Y-97169275D01*
X106015116Y-97277373D01*
X105965364Y-97397485D01*
X105940000Y-97524996D01*
X105940000Y-97655004D01*
X105965364Y-97782515D01*
X106015116Y-97902627D01*
X106087345Y-98010725D01*
X106179275Y-98102655D01*
X106287373Y-98174884D01*
X106372817Y-98210276D01*
X106258913Y-98244828D01*
X106113854Y-98322364D01*
X105986709Y-98426709D01*
X105882364Y-98553854D01*
X105804828Y-98698913D01*
X105757082Y-98856311D01*
X105740960Y-99020000D01*
X105757082Y-99183689D01*
X105804828Y-99341087D01*
X105882364Y-99486146D01*
X105986709Y-99613291D01*
X106113854Y-99717636D01*
X106258913Y-99795172D01*
X106416311Y-99842918D01*
X106538981Y-99855000D01*
X107721019Y-99855000D01*
X107843689Y-99842918D01*
X108001087Y-99795172D01*
X108146146Y-99717636D01*
X108273291Y-99613291D01*
X108377636Y-99486146D01*
X108455172Y-99341087D01*
X108502918Y-99183689D01*
X108519040Y-99020000D01*
X108505864Y-98886225D01*
X108770000Y-98888072D01*
X108894482Y-98875812D01*
X109014180Y-98839502D01*
X109124494Y-98780537D01*
X109221185Y-98701185D01*
X109300537Y-98604494D01*
X109359502Y-98494180D01*
X109395812Y-98374482D01*
X109408072Y-98250000D01*
X109405000Y-98235750D01*
X109246252Y-98077002D01*
X109296465Y-98077002D01*
X113009462Y-101790000D01*
X106978038Y-101790000D01*
X106811620Y-101623582D01*
X106811620Y-101243750D01*
X106800949Y-101135403D01*
X106769345Y-101031219D01*
X106718023Y-100935203D01*
X106648956Y-100851044D01*
X106564797Y-100781977D01*
X106468781Y-100730655D01*
X106364597Y-100699051D01*
X106256250Y-100688380D01*
X105743750Y-100688380D01*
X105635403Y-100699051D01*
X105531219Y-100730655D01*
X105435203Y-100781977D01*
X105351044Y-100851044D01*
X105281977Y-100935203D01*
X105230655Y-101031219D01*
X105199051Y-101135403D01*
X105188380Y-101243750D01*
X105188380Y-101681250D01*
X105199051Y-101789597D01*
X105230655Y-101893781D01*
X105281977Y-101989797D01*
X105351044Y-102073956D01*
X105435203Y-102143023D01*
X105531219Y-102194345D01*
X105635403Y-102225949D01*
X105743750Y-102236620D01*
X106123582Y-102236620D01*
X106150342Y-102263380D01*
X105743750Y-102263380D01*
X105635403Y-102274051D01*
X105531219Y-102305655D01*
X105435203Y-102356977D01*
X105351044Y-102426044D01*
X105281977Y-102510203D01*
X105246006Y-102577500D01*
X103503994Y-102577500D01*
X103468023Y-102510203D01*
X103398956Y-102426044D01*
X103314797Y-102356977D01*
X103218781Y-102305655D01*
X103114597Y-102274051D01*
X103006250Y-102263380D01*
X102493750Y-102263380D01*
X102385403Y-102274051D01*
X102281219Y-102305655D01*
X102185203Y-102356977D01*
X102101044Y-102426044D01*
X102031977Y-102510203D01*
X101980655Y-102606219D01*
X101949051Y-102710403D01*
X101938380Y-102818750D01*
X100360000Y-102818750D01*
X100360000Y-100927609D01*
X100515000Y-100927609D01*
X100515000Y-101072391D01*
X100543246Y-101214391D01*
X100598652Y-101348153D01*
X100679088Y-101468535D01*
X100781465Y-101570912D01*
X100901847Y-101651348D01*
X101035609Y-101706754D01*
X101177609Y-101735000D01*
X101322391Y-101735000D01*
X101332459Y-101732997D01*
X101371257Y-101771795D01*
X101385658Y-101789342D01*
X101455702Y-101846826D01*
X101535614Y-101889540D01*
X101622324Y-101915843D01*
X101689910Y-101922500D01*
X101689918Y-101922500D01*
X101712500Y-101924724D01*
X101735082Y-101922500D01*
X101996006Y-101922500D01*
X102031977Y-101989797D01*
X102101044Y-102073956D01*
X102185203Y-102143023D01*
X102281219Y-102194345D01*
X102385403Y-102225949D01*
X102493750Y-102236620D01*
X103006250Y-102236620D01*
X103114597Y-102225949D01*
X103218781Y-102194345D01*
X103314797Y-102143023D01*
X103398956Y-102073956D01*
X103468023Y-101989797D01*
X103519345Y-101893781D01*
X103550949Y-101789597D01*
X103561620Y-101681250D01*
X103561620Y-101243750D01*
X103550949Y-101135403D01*
X103519345Y-101031219D01*
X103468023Y-100935203D01*
X103398956Y-100851044D01*
X103314797Y-100781977D01*
X103218781Y-100730655D01*
X103114597Y-100699051D01*
X103006250Y-100688380D01*
X102493750Y-100688380D01*
X102385403Y-100699051D01*
X102281219Y-100730655D01*
X102185203Y-100781977D01*
X102101044Y-100851044D01*
X102031977Y-100935203D01*
X101996006Y-101002500D01*
X101985000Y-101002500D01*
X101985000Y-100927609D01*
X101956754Y-100785609D01*
X101901348Y-100651847D01*
X101820912Y-100531465D01*
X101718535Y-100429088D01*
X101598153Y-100348652D01*
X101464391Y-100293246D01*
X101322391Y-100265000D01*
X101177609Y-100265000D01*
X101035609Y-100293246D01*
X100901847Y-100348652D01*
X100781465Y-100429088D01*
X100679088Y-100531465D01*
X100598652Y-100651847D01*
X100543246Y-100785609D01*
X100515000Y-100927609D01*
X100360000Y-100927609D01*
X100360000Y-99020000D01*
X101810960Y-99020000D01*
X101827082Y-99183689D01*
X101874828Y-99341087D01*
X101952364Y-99486146D01*
X102056709Y-99613291D01*
X102183854Y-99717636D01*
X102328913Y-99795172D01*
X102486311Y-99842918D01*
X102608981Y-99855000D01*
X103291019Y-99855000D01*
X103413689Y-99842918D01*
X103571087Y-99795172D01*
X103716146Y-99717636D01*
X103843291Y-99613291D01*
X103947636Y-99486146D01*
X104025172Y-99341087D01*
X104072918Y-99183689D01*
X104089040Y-99020000D01*
X104072918Y-98856311D01*
X104025172Y-98698913D01*
X103947636Y-98553854D01*
X103843291Y-98426709D01*
X103716146Y-98322364D01*
X103571087Y-98244828D01*
X103413689Y-98197082D01*
X103291019Y-98185000D01*
X102608981Y-98185000D01*
X102486311Y-98197082D01*
X102328913Y-98244828D01*
X102183854Y-98322364D01*
X102056709Y-98426709D01*
X101952364Y-98553854D01*
X101874828Y-98698913D01*
X101827082Y-98856311D01*
X101810960Y-99020000D01*
X100360000Y-99020000D01*
X100360000Y-90380000D01*
X101810960Y-90380000D01*
X101827082Y-90543689D01*
X101874828Y-90701087D01*
X101952364Y-90846146D01*
X102056709Y-90973291D01*
X102183854Y-91077636D01*
X102328913Y-91155172D01*
X102486311Y-91202918D01*
X102608981Y-91215000D01*
X103291019Y-91215000D01*
X103413689Y-91202918D01*
X103571087Y-91155172D01*
X103716146Y-91077636D01*
X103843291Y-90973291D01*
X103947636Y-90846146D01*
X104025172Y-90701087D01*
X104072918Y-90543689D01*
X104089040Y-90380000D01*
X104072918Y-90216311D01*
X104025172Y-90058913D01*
X103947636Y-89913854D01*
X103843291Y-89786709D01*
X103716146Y-89682364D01*
X103571087Y-89604828D01*
X103413689Y-89557082D01*
X103291019Y-89545000D01*
X102608981Y-89545000D01*
X102486311Y-89557082D01*
X102328913Y-89604828D01*
X102183854Y-89682364D01*
X102056709Y-89786709D01*
X101952364Y-89913854D01*
X101874828Y-90058913D01*
X101827082Y-90216311D01*
X101810960Y-90380000D01*
X100360000Y-90380000D01*
X100360000Y-88677609D01*
X100515000Y-88677609D01*
X100515000Y-88822391D01*
X100543246Y-88964391D01*
X100598652Y-89098153D01*
X100679088Y-89218535D01*
X100781465Y-89320912D01*
X100901847Y-89401348D01*
X101035609Y-89456754D01*
X101177609Y-89485000D01*
X101322391Y-89485000D01*
X101464391Y-89456754D01*
X101598153Y-89401348D01*
X101718535Y-89320912D01*
X101820912Y-89218535D01*
X101901348Y-89098153D01*
X101956754Y-88964391D01*
X101985000Y-88822391D01*
X101985000Y-88677609D01*
X101982997Y-88667540D01*
X102056211Y-88594327D01*
X102101044Y-88648956D01*
X102185203Y-88718023D01*
X102281219Y-88769345D01*
X102385403Y-88800949D01*
X102493750Y-88811620D01*
X103006250Y-88811620D01*
X103114597Y-88800949D01*
X103218781Y-88769345D01*
X103314797Y-88718023D01*
X103398956Y-88648956D01*
X103468023Y-88564797D01*
X103519345Y-88468781D01*
X103550949Y-88364597D01*
X103561620Y-88256250D01*
X103561620Y-87818750D01*
X103550949Y-87710403D01*
X103519345Y-87606219D01*
X103468023Y-87510203D01*
X103398956Y-87426044D01*
X103314797Y-87356977D01*
X103218781Y-87305655D01*
X103114597Y-87274051D01*
X103006250Y-87263380D01*
X102493750Y-87263380D01*
X102385403Y-87274051D01*
X102281219Y-87305655D01*
X102185203Y-87356977D01*
X102101044Y-87426044D01*
X102031977Y-87510203D01*
X101996006Y-87577500D01*
X101985081Y-87577500D01*
X101962499Y-87575276D01*
X101939917Y-87577500D01*
X101939910Y-87577500D01*
X101880854Y-87583317D01*
X101872323Y-87584157D01*
X101799595Y-87606219D01*
X101785614Y-87610460D01*
X101705702Y-87653174D01*
X101635658Y-87710658D01*
X101621259Y-87728203D01*
X101332460Y-88017003D01*
X101322391Y-88015000D01*
X101177609Y-88015000D01*
X101035609Y-88043246D01*
X100901847Y-88098652D01*
X100781465Y-88179088D01*
X100679088Y-88281465D01*
X100598652Y-88401847D01*
X100543246Y-88535609D01*
X100515000Y-88677609D01*
X100360000Y-88677609D01*
X100360000Y-86243750D01*
X101938380Y-86243750D01*
X101938380Y-86681250D01*
X101949051Y-86789597D01*
X101980655Y-86893781D01*
X102031977Y-86989797D01*
X102101044Y-87073956D01*
X102185203Y-87143023D01*
X102281219Y-87194345D01*
X102385403Y-87225949D01*
X102493750Y-87236620D01*
X103006250Y-87236620D01*
X103114597Y-87225949D01*
X103218781Y-87194345D01*
X103314797Y-87143023D01*
X103398956Y-87073956D01*
X103468023Y-86989797D01*
X103519345Y-86893781D01*
X103522009Y-86885000D01*
X105246006Y-86885000D01*
X105281977Y-86952297D01*
X105351044Y-87036456D01*
X105435203Y-87105523D01*
X105531219Y-87156845D01*
X105635403Y-87188449D01*
X105743750Y-87199120D01*
X106256250Y-87199120D01*
X106364597Y-87188449D01*
X106468781Y-87156845D01*
X106564797Y-87105523D01*
X106648956Y-87036456D01*
X106718023Y-86952297D01*
X106769345Y-86856281D01*
X106794001Y-86775000D01*
X113386928Y-86775000D01*
X113390000Y-86964250D01*
X113548750Y-87123000D01*
X114335500Y-87123000D01*
X114335500Y-86298750D01*
X114176750Y-86140000D01*
X114025000Y-86136928D01*
X113900518Y-86149188D01*
X113780820Y-86185498D01*
X113670506Y-86244463D01*
X113573815Y-86323815D01*
X113494463Y-86420506D01*
X113435498Y-86530820D01*
X113399188Y-86650518D01*
X113386928Y-86775000D01*
X106794001Y-86775000D01*
X106800949Y-86752097D01*
X106811620Y-86643750D01*
X106811620Y-86206250D01*
X106800949Y-86097903D01*
X106769345Y-85993719D01*
X106718023Y-85897703D01*
X106648956Y-85813544D01*
X106564797Y-85744477D01*
X106468781Y-85693155D01*
X106364597Y-85661551D01*
X106256250Y-85650880D01*
X105743750Y-85650880D01*
X105635403Y-85661551D01*
X105531219Y-85693155D01*
X105435203Y-85744477D01*
X105351044Y-85813544D01*
X105281977Y-85897703D01*
X105246006Y-85965000D01*
X103483950Y-85965000D01*
X103468023Y-85935203D01*
X103398956Y-85851044D01*
X103314797Y-85781977D01*
X103218781Y-85730655D01*
X103114597Y-85699051D01*
X103006250Y-85688380D01*
X102493750Y-85688380D01*
X102385403Y-85699051D01*
X102281219Y-85730655D01*
X102185203Y-85781977D01*
X102101044Y-85851044D01*
X102031977Y-85935203D01*
X101980655Y-86031219D01*
X101949051Y-86135403D01*
X101938380Y-86243750D01*
X100360000Y-86243750D01*
X100360000Y-85360000D01*
X129640000Y-85360000D01*
X129640001Y-104640000D01*
G36*
X108172000Y-97823000D02*
G01*
X108192000Y-97823000D01*
X108192000Y-98077000D01*
X108172000Y-98077000D01*
X108172000Y-98097000D01*
X107918000Y-98097000D01*
X107918000Y-98077000D01*
X107898000Y-98077000D01*
X107898000Y-97823000D01*
X107918000Y-97823000D01*
X107918000Y-97803000D01*
X108172000Y-97803000D01*
X108172000Y-97823000D01*
G37*
X108172000Y-97823000D02*
X108192000Y-97823000D01*
X108192000Y-98077000D01*
X108172000Y-98077000D01*
X108172000Y-98097000D01*
X107918000Y-98097000D01*
X107918000Y-98077000D01*
X107898000Y-98077000D01*
X107898000Y-97823000D01*
X107918000Y-97823000D01*
X107918000Y-97803000D01*
X108172000Y-97803000D01*
X108172000Y-97823000D01*
G04 #@! TD*
M02*
