G04 #@! TF.GenerationSoftware,KiCad,Pcbnew,(5.1.6)-1*
G04 #@! TF.CreationDate,2020-11-21T21:50:24+04:00*
G04 #@! TF.ProjectId,CH330N-USB-TO-UART-BOARD,43483333-304e-42d5-9553-422d544f2d55,rev?*
G04 #@! TF.SameCoordinates,Original*
G04 #@! TF.FileFunction,Soldermask,Top*
G04 #@! TF.FilePolarity,Negative*
%FSLAX46Y46*%
G04 Gerber Fmt 4.6, Leading zero omitted, Abs format (unit mm)*
G04 Created by KiCad (PCBNEW (5.1.6)-1) date 2020-11-21 21:50:24*
%MOMM*%
%LPD*%
G01*
G04 APERTURE LIST*
%ADD10R,1.550000X0.700000*%
%ADD11R,1.550000X0.400000*%
%ADD12O,2.200000X1.100000*%
%ADD13C,0.750000*%
%ADD14O,1.700000X1.100000*%
%ADD15O,1.800000X1.800000*%
%ADD16R,1.800000X1.800000*%
G04 APERTURE END LIST*
G04 #@! TO.C,D1*
G36*
G01*
X102468750Y-102550000D02*
X103031250Y-102550000D01*
G75*
G02*
X103275000Y-102793750I0J-243750D01*
G01*
X103275000Y-103281250D01*
G75*
G02*
X103031250Y-103525000I-243750J0D01*
G01*
X102468750Y-103525000D01*
G75*
G02*
X102225000Y-103281250I0J243750D01*
G01*
X102225000Y-102793750D01*
G75*
G02*
X102468750Y-102550000I243750J0D01*
G01*
G37*
G36*
G01*
X102468750Y-100975000D02*
X103031250Y-100975000D01*
G75*
G02*
X103275000Y-101218750I0J-243750D01*
G01*
X103275000Y-101706250D01*
G75*
G02*
X103031250Y-101950000I-243750J0D01*
G01*
X102468750Y-101950000D01*
G75*
G02*
X102225000Y-101706250I0J243750D01*
G01*
X102225000Y-101218750D01*
G75*
G02*
X102468750Y-100975000I243750J0D01*
G01*
G37*
G04 #@! TD*
G04 #@! TO.C,D2*
G36*
G01*
X103031250Y-86950000D02*
X102468750Y-86950000D01*
G75*
G02*
X102225000Y-86706250I0J243750D01*
G01*
X102225000Y-86218750D01*
G75*
G02*
X102468750Y-85975000I243750J0D01*
G01*
X103031250Y-85975000D01*
G75*
G02*
X103275000Y-86218750I0J-243750D01*
G01*
X103275000Y-86706250D01*
G75*
G02*
X103031250Y-86950000I-243750J0D01*
G01*
G37*
G36*
G01*
X103031250Y-88525000D02*
X102468750Y-88525000D01*
G75*
G02*
X102225000Y-88281250I0J243750D01*
G01*
X102225000Y-87793750D01*
G75*
G02*
X102468750Y-87550000I243750J0D01*
G01*
X103031250Y-87550000D01*
G75*
G02*
X103275000Y-87793750I0J-243750D01*
G01*
X103275000Y-88281250D01*
G75*
G02*
X103031250Y-88525000I-243750J0D01*
G01*
G37*
G04 #@! TD*
G04 #@! TO.C,R1*
G36*
G01*
X105718750Y-102550000D02*
X106281250Y-102550000D01*
G75*
G02*
X106525000Y-102793750I0J-243750D01*
G01*
X106525000Y-103281250D01*
G75*
G02*
X106281250Y-103525000I-243750J0D01*
G01*
X105718750Y-103525000D01*
G75*
G02*
X105475000Y-103281250I0J243750D01*
G01*
X105475000Y-102793750D01*
G75*
G02*
X105718750Y-102550000I243750J0D01*
G01*
G37*
G36*
G01*
X105718750Y-100975000D02*
X106281250Y-100975000D01*
G75*
G02*
X106525000Y-101218750I0J-243750D01*
G01*
X106525000Y-101706250D01*
G75*
G02*
X106281250Y-101950000I-243750J0D01*
G01*
X105718750Y-101950000D01*
G75*
G02*
X105475000Y-101706250I0J243750D01*
G01*
X105475000Y-101218750D01*
G75*
G02*
X105718750Y-100975000I243750J0D01*
G01*
G37*
G04 #@! TD*
G04 #@! TO.C,C1*
G36*
G01*
X115550000Y-102531250D02*
X115550000Y-101968750D01*
G75*
G02*
X115793750Y-101725000I243750J0D01*
G01*
X116281250Y-101725000D01*
G75*
G02*
X116525000Y-101968750I0J-243750D01*
G01*
X116525000Y-102531250D01*
G75*
G02*
X116281250Y-102775000I-243750J0D01*
G01*
X115793750Y-102775000D01*
G75*
G02*
X115550000Y-102531250I0J243750D01*
G01*
G37*
G36*
G01*
X113975000Y-102531250D02*
X113975000Y-101968750D01*
G75*
G02*
X114218750Y-101725000I243750J0D01*
G01*
X114706250Y-101725000D01*
G75*
G02*
X114950000Y-101968750I0J-243750D01*
G01*
X114950000Y-102531250D01*
G75*
G02*
X114706250Y-102775000I-243750J0D01*
G01*
X114218750Y-102775000D01*
G75*
G02*
X113975000Y-102531250I0J243750D01*
G01*
G37*
G04 #@! TD*
G04 #@! TO.C,C2*
G36*
G01*
X114950000Y-86968750D02*
X114950000Y-87531250D01*
G75*
G02*
X114706250Y-87775000I-243750J0D01*
G01*
X114218750Y-87775000D01*
G75*
G02*
X113975000Y-87531250I0J243750D01*
G01*
X113975000Y-86968750D01*
G75*
G02*
X114218750Y-86725000I243750J0D01*
G01*
X114706250Y-86725000D01*
G75*
G02*
X114950000Y-86968750I0J-243750D01*
G01*
G37*
G36*
G01*
X116525000Y-86968750D02*
X116525000Y-87531250D01*
G75*
G02*
X116281250Y-87775000I-243750J0D01*
G01*
X115793750Y-87775000D01*
G75*
G02*
X115550000Y-87531250I0J243750D01*
G01*
X115550000Y-86968750D01*
G75*
G02*
X115793750Y-86725000I243750J0D01*
G01*
X116281250Y-86725000D01*
G75*
G02*
X116525000Y-86968750I0J-243750D01*
G01*
G37*
G04 #@! TD*
G04 #@! TO.C,R2*
G36*
G01*
X106281250Y-86912500D02*
X105718750Y-86912500D01*
G75*
G02*
X105475000Y-86668750I0J243750D01*
G01*
X105475000Y-86181250D01*
G75*
G02*
X105718750Y-85937500I243750J0D01*
G01*
X106281250Y-85937500D01*
G75*
G02*
X106525000Y-86181250I0J-243750D01*
G01*
X106525000Y-86668750D01*
G75*
G02*
X106281250Y-86912500I-243750J0D01*
G01*
G37*
G36*
G01*
X106281250Y-88487500D02*
X105718750Y-88487500D01*
G75*
G02*
X105475000Y-88243750I0J243750D01*
G01*
X105475000Y-87756250D01*
G75*
G02*
X105718750Y-87512500I243750J0D01*
G01*
X106281250Y-87512500D01*
G75*
G02*
X106525000Y-87756250I0J-243750D01*
G01*
X106525000Y-88243750D01*
G75*
G02*
X106281250Y-88487500I-243750J0D01*
G01*
G37*
G04 #@! TD*
G04 #@! TO.C,U1*
G36*
G01*
X113520000Y-93250000D02*
X113170000Y-93250000D01*
G75*
G02*
X112995000Y-93075000I0J175000D01*
G01*
X112995000Y-91675000D01*
G75*
G02*
X113170000Y-91500000I175000J0D01*
G01*
X113520000Y-91500000D01*
G75*
G02*
X113695000Y-91675000I0J-175000D01*
G01*
X113695000Y-93075000D01*
G75*
G02*
X113520000Y-93250000I-175000J0D01*
G01*
G37*
G36*
G01*
X114790000Y-93250000D02*
X114440000Y-93250000D01*
G75*
G02*
X114265000Y-93075000I0J175000D01*
G01*
X114265000Y-91675000D01*
G75*
G02*
X114440000Y-91500000I175000J0D01*
G01*
X114790000Y-91500000D01*
G75*
G02*
X114965000Y-91675000I0J-175000D01*
G01*
X114965000Y-93075000D01*
G75*
G02*
X114790000Y-93250000I-175000J0D01*
G01*
G37*
G36*
G01*
X116060000Y-93250000D02*
X115710000Y-93250000D01*
G75*
G02*
X115535000Y-93075000I0J175000D01*
G01*
X115535000Y-91675000D01*
G75*
G02*
X115710000Y-91500000I175000J0D01*
G01*
X116060000Y-91500000D01*
G75*
G02*
X116235000Y-91675000I0J-175000D01*
G01*
X116235000Y-93075000D01*
G75*
G02*
X116060000Y-93250000I-175000J0D01*
G01*
G37*
G36*
G01*
X117330000Y-93250000D02*
X116980000Y-93250000D01*
G75*
G02*
X116805000Y-93075000I0J175000D01*
G01*
X116805000Y-91675000D01*
G75*
G02*
X116980000Y-91500000I175000J0D01*
G01*
X117330000Y-91500000D01*
G75*
G02*
X117505000Y-91675000I0J-175000D01*
G01*
X117505000Y-93075000D01*
G75*
G02*
X117330000Y-93250000I-175000J0D01*
G01*
G37*
G36*
G01*
X117330000Y-98500000D02*
X116980000Y-98500000D01*
G75*
G02*
X116805000Y-98325000I0J175000D01*
G01*
X116805000Y-96925000D01*
G75*
G02*
X116980000Y-96750000I175000J0D01*
G01*
X117330000Y-96750000D01*
G75*
G02*
X117505000Y-96925000I0J-175000D01*
G01*
X117505000Y-98325000D01*
G75*
G02*
X117330000Y-98500000I-175000J0D01*
G01*
G37*
G36*
G01*
X116060000Y-98500000D02*
X115710000Y-98500000D01*
G75*
G02*
X115535000Y-98325000I0J175000D01*
G01*
X115535000Y-96925000D01*
G75*
G02*
X115710000Y-96750000I175000J0D01*
G01*
X116060000Y-96750000D01*
G75*
G02*
X116235000Y-96925000I0J-175000D01*
G01*
X116235000Y-98325000D01*
G75*
G02*
X116060000Y-98500000I-175000J0D01*
G01*
G37*
G36*
G01*
X114790000Y-98500000D02*
X114440000Y-98500000D01*
G75*
G02*
X114265000Y-98325000I0J175000D01*
G01*
X114265000Y-96925000D01*
G75*
G02*
X114440000Y-96750000I175000J0D01*
G01*
X114790000Y-96750000D01*
G75*
G02*
X114965000Y-96925000I0J-175000D01*
G01*
X114965000Y-98325000D01*
G75*
G02*
X114790000Y-98500000I-175000J0D01*
G01*
G37*
G36*
G01*
X113520000Y-98500000D02*
X113170000Y-98500000D01*
G75*
G02*
X112995000Y-98325000I0J175000D01*
G01*
X112995000Y-96925000D01*
G75*
G02*
X113170000Y-96750000I175000J0D01*
G01*
X113520000Y-96750000D01*
G75*
G02*
X113695000Y-96925000I0J-175000D01*
G01*
X113695000Y-98325000D01*
G75*
G02*
X113520000Y-98500000I-175000J0D01*
G01*
G37*
G04 #@! TD*
D10*
G04 #@! TO.C,J1*
X108045000Y-97950000D03*
X108045000Y-97150000D03*
X108045000Y-92250000D03*
X108045000Y-91450000D03*
X108045000Y-91450000D03*
X108045000Y-92250000D03*
X108045000Y-97150000D03*
X108045000Y-97950000D03*
D11*
X108045000Y-92950000D03*
X108045000Y-93450000D03*
X108045000Y-93950000D03*
X108045000Y-94950000D03*
X108045000Y-95450000D03*
X108045000Y-95950000D03*
X108045000Y-96450000D03*
X108045000Y-94450000D03*
D12*
X107130000Y-99020000D03*
X107130000Y-90380000D03*
D13*
X106600000Y-91810000D03*
D14*
X102950000Y-90380000D03*
D13*
X106600000Y-97590000D03*
D14*
X102950000Y-99020000D03*
G04 #@! TD*
D15*
G04 #@! TO.C,J2*
X127500000Y-100120000D03*
X127500000Y-97580000D03*
X127500000Y-95040000D03*
X127500000Y-92500000D03*
D16*
X127500000Y-89960000D03*
G04 #@! TD*
M02*
